<svg width="104" height="33" viewBox="0 0 104 33" fill="none" xmlns="http://www.w3.org/2000/svg">
<g clip-path="url(#clip0_629_935)">
<path fill-rule="evenodd" clip-rule="evenodd" d="M8.484 32.2197H10.88V19.4197H8.484V32.2197ZM17.267 32.0277H19.413V23.9517L28.446 32.2197V19.6117H26.306V27.5497L17.267 19.4197V32.0277ZM33.345 28.9277C34.513 29.8377 35.915 30.3637 37.418 30.3637C38.882 30.3637 39.909 29.8597 39.909 28.7467C39.909 27.7767 39.254 27.3967 38.107 26.9717L36.25 26.3267C34.538 25.7187 33.236 24.8307 33.236 22.7897C33.236 20.6067 35.207 19.4197 37.564 19.4197C39.008 19.4197 40.324 19.7827 41.352 20.4257V22.5907C40.283 21.8007 39.113 21.2567 37.61 21.2567C36.316 21.2567 35.349 21.7397 35.349 22.7467C35.349 23.6567 35.956 24.0207 37.025 24.3867L39.094 25.1127C41.099 25.8177 42.019 26.9107 42.019 28.7087C42.019 30.9707 40.029 32.2197 37.418 32.2197C35.702 32.2197 34.243 31.7397 33.345 31.1337V28.9277ZM47.609 32.2197H50.004V19.4197H47.609V32.2197ZM61.24 30.2827C63.94 30.2827 65.383 28.5507 65.383 25.8167C65.383 23.0627 63.939 21.3367 61.24 21.3367H58.57V30.2827H61.24V30.2827ZM56.39 19.4197H61.32C65.115 19.4197 67.569 21.9197 67.569 25.8167C67.569 29.7167 65.115 32.2197 61.32 32.2197H56.39V19.4197ZM79.547 19.4197V21.3367H73.75V24.4167H78.949V26.3117H73.749V30.2827H79.547V32.2197H71.562V19.4197H79.547ZM88.049 25.2157H90.426C91.833 25.2157 92.626 24.4437 92.626 23.2567C92.626 22.0697 91.833 21.2967 90.426 21.2967H88.049V25.2167V25.2157ZM88.049 27.0257V32.2197H85.934V19.4197H90.466C93.05 19.4197 94.722 20.7507 94.722 23.2567C94.722 25.3997 93.794 26.6307 91.817 26.9467L96.314 32.2197H93.908L89.554 27.0267H88.05L88.049 27.0257ZM7.647 6.80973C8.584 6.46673 9.314 5.43773 9.314 4.02273C9.314 1.66473 7.647 0.442727 4.98 0.442727H0.5V13.6057H5.396C8.063 13.6057 9.73 12.2977 9.73 9.83273C9.73 8.43873 8.855 7.21673 7.647 6.80973ZM2.604 5.97373V2.37273H4.96C6.44 2.37273 7.231 2.90873 7.231 4.15173C7.231 5.39473 6.439 5.97373 4.96 5.97373H2.604ZM2.604 7.81773H5.354C6.814 7.81773 7.605 8.54573 7.605 9.74673C7.605 10.9257 6.813 11.6767 5.355 11.6767H2.605V7.81673L2.604 7.81773ZM19.505 13.8197C22.568 13.8197 24.631 11.9757 24.631 8.37473V0.442727H22.464V8.11673C22.464 10.6467 21.422 11.8267 19.505 11.8267C17.588 11.8267 16.547 10.6467 16.547 8.11673V0.442727H14.38V8.35273C14.38 11.9757 16.463 13.8197 19.505 13.8197V13.8197ZM29.733 12.6617C30.629 13.3057 32.088 13.8197 33.796 13.8197C36.401 13.8197 38.38 12.4897 38.38 10.0897C38.38 8.18173 37.464 7.02373 35.463 6.27373L33.401 5.50173C32.338 5.11673 31.734 4.73073 31.734 3.76573C31.734 2.69373 32.692 2.17973 33.984 2.17973C35.484 2.17973 36.651 2.75773 37.714 3.59473V1.29973C36.693 0.614727 35.38 0.228727 33.942 0.228727C31.588 0.228727 29.629 1.49373 29.629 3.80873C29.629 5.97373 30.921 6.91673 32.629 7.55973L34.484 8.24573C35.63 8.69573 36.276 9.10373 36.276 10.1327C36.276 11.3117 35.255 11.8477 33.796 11.8477C32.296 11.8477 30.9 11.2897 29.733 10.3257V12.6617V12.6617ZM46.123 0.442727H43.957V13.6047H46.123V0.442727ZM52.305 13.5887H54.393V5.02573L63.181 13.7927V0.422727H61.099V8.83973L52.305 0.219727V13.5887V13.5887ZM76.722 0.445727V2.41673H71.096V5.58473H76.141V7.53373H71.096V11.6167H76.722V13.6087H68.972V0.445727H76.722ZM81.767 12.6527C82.663 13.2967 84.121 13.8107 85.83 13.8107C88.434 13.8107 90.414 12.4817 90.414 10.0807C90.414 8.17273 89.497 7.01573 87.497 6.26473L85.434 5.49373C84.371 5.10773 83.767 4.72173 83.767 3.75673C83.767 2.68473 84.725 2.17073 86.017 2.17073C87.517 2.17073 88.684 2.74973 89.747 3.58573V1.29173C88.726 0.605727 87.413 0.219727 85.975 0.219727C83.621 0.219727 81.662 1.48473 81.662 3.79973C81.662 5.96473 82.954 6.90773 84.662 7.55073L86.517 8.23673C87.663 8.68673 88.309 9.09473 88.309 10.1237C88.309 11.3027 87.289 11.8387 85.829 11.8387C84.329 11.8387 82.933 11.2817 81.767 10.3167V12.6527V12.6527ZM94.853 12.6527C95.749 13.2967 97.208 13.8107 98.916 13.8107C101.521 13.8107 103.5 12.4817 103.5 10.0807C103.5 8.17273 102.583 7.01573 100.583 6.26473L98.52 5.49373C97.458 5.10773 96.853 4.72173 96.853 3.75673C96.853 2.68473 97.812 2.17073 99.103 2.17073C100.603 2.17073 101.771 2.74973 102.833 3.58573V1.29173C101.813 0.605727 100.5 0.219727 99.062 0.219727C96.707 0.219727 94.749 1.48473 94.749 3.79973C94.749 5.96473 96.041 6.90773 97.749 7.55073L99.604 8.23673C100.75 8.68673 101.396 9.09473 101.396 10.1237C101.396 11.3027 100.375 11.8387 98.916 11.8387C97.416 11.8387 96.02 11.2817 94.853 10.3167V12.6527V12.6527Z" fill="#111111"/>
</g>
<defs>
<clipPath id="clip0_629_935">
<rect width="103" height="32" fill="white" transform="translate(0.5 0.219727)"/>
</clipPath>
</defs>
</svg>
