<svg width="100" height="32" viewBox="0 0 100 32" fill="none" xmlns="http://www.w3.org/2000/svg">
<path fill-rule="evenodd" clip-rule="evenodd" d="M45.6935 0.413495L45.761 3.15784L45.1217 3.19123C45.0712 1.51183 44.7173 1.28251 42.1644 1.28251H41.6182V10.8966C41.6182 12.2246 41.9558 12.5764 43.2638 12.6131L43.2965 13.0721C42.0582 13.0558 41.1191 13.0558 40.5232 13.0558C39.8965 13.0558 38.9232 13.0558 37.6471 13.0721L37.6798 12.6131C38.9911 12.5764 39.3295 12.2246 39.3295 10.8962V1.28214H38.6909C36.0686 1.28214 35.7143 1.51183 35.6805 3.19123L35.0449 3.15784L35.108 0.413495C37.5013 0.429451 39.2924 0.451343 40.4939 0.451343C41.6182 0.451343 43.3699 0.429451 45.6935 0.413495V0.413495ZM46.754 12.6469C47.941 12.6469 48.1009 12.4172 48.1187 10.7541V2.73483C48.1009 1.06841 47.9406 0.837614 46.754 0.837614L46.7184 0.412754C48.3317 0.325926 48.7013 0.27101 50.1581 0.00830078V5.46025C51.0957 4.44986 51.859 4.04281 52.9054 4.04281C54.639 4.04281 55.5974 5.10552 55.5974 7.12444V10.7541C55.6152 12.4172 55.7748 12.6469 56.9592 12.6469L56.9896 13.0721C55.9703 13.0387 55.1907 13.0016 54.6768 13.0016C54.1774 13.0016 53.4512 13.0387 52.4775 13.0721L52.5147 12.6469C53.4512 12.507 53.541 12.3326 53.5584 10.7541V8.09661C53.5584 5.86581 53.1707 5.12481 52.0007 5.12481C51.3781 5.12481 50.7065 5.52852 50.4234 6.15004C50.3169 6.36303 50.2456 6.59049 50.1744 6.82092C50.1581 6.91294 50.1581 6.98047 50.1581 7.01646V10.7541C50.1581 12.3326 50.2646 12.507 51.1993 12.6469L51.2375 13.0721C50.2456 13.0387 49.5158 13.0016 49.0223 13.0016C48.5083 13.0016 47.7276 13.0387 46.7184 13.0721L46.754 12.6469V12.6469ZM59.8419 7.44466C61.4698 7.4083 61.9651 7.36934 63.5807 7.19457C63.3677 5.47769 62.7228 4.6621 61.6289 4.6621C60.5662 4.6621 60.0167 5.51034 59.8419 7.44503V7.44466ZM65.4586 11.3367C64.3588 12.7014 63.2805 13.2699 61.8931 13.2699C59.4338 13.2699 57.7688 11.4628 57.7688 8.82092C57.7688 5.97416 59.4868 4.04207 61.9655 4.04207C63.2976 4.04207 64.256 4.53594 64.9109 5.58307C65.3529 6.32852 65.4753 6.83984 65.492 8.11628H59.8924C59.9666 10.7723 60.9377 12.2936 62.5566 12.2936C63.5102 12.2936 64.3243 11.8502 65.1941 10.8428L65.4586 11.3367V11.3367ZM0.179584 29.438C1.61706 29.4013 1.9896 29.0094 1.9896 27.5356V18.3185C1.9896 16.8465 1.61706 16.4551 0.179584 16.4142L0.122441 15.9393L3.13543 15.9771L7.89981 15.917L9.15398 15.9393L9.2319 18.789L8.446 18.8484C8.31057 17.0643 7.97699 16.868 5.18144 16.868H4.7473L4.55138 16.8851V22.1912C4.92096 22.1912 5.22077 22.212 5.39814 22.212C5.69909 22.2338 6.00067 22.2459 6.3024 22.2484C7.83933 22.2484 8.19368 21.9181 8.21001 20.4588H8.88051C8.82114 21.6269 8.82114 22.2317 8.82114 22.8194C8.82114 23.2922 8.82114 23.9556 8.84081 24.838H8.21001C8.13283 23.4306 7.81669 23.1541 6.34211 23.1367L5.27829 23.1144L4.53172 23.1541V27.2617C4.53172 28.9322 4.62931 29.0094 6.28163 29.0094C8.46753 29.0094 9.11762 28.5181 9.31094 26.6469L10.0976 26.6888L9.64526 29.9493L8.13283 29.9705L3.35398 29.9319L0.12207 29.9493L0.179584 29.438V29.438ZM20.0215 28.5571C18.902 29.7155 18.0115 30.1675 16.7169 30.1675C14.1258 30.1675 12.4653 28.1456 12.4653 25.0988C12.4653 21.9189 14.2189 19.9274 17.0501 19.9274C17.7959 19.9274 18.5499 20.0647 19.7132 20.3801L19.7466 22.7007L18.8627 22.7601C18.5343 21.0276 18.1892 20.6154 17.0501 20.6154C15.5785 20.6154 14.8126 21.8959 14.8126 24.4272C14.8126 27.3808 15.7321 29.0487 17.4041 29.0487C18.2683 29.0487 18.9614 28.6743 19.7291 27.851L20.0215 28.5571V28.5571ZM24.5254 25.2135C24.7206 27.9875 25.6449 29.4974 27.157 29.4974C28.5707 29.4974 29.4178 28.028 29.4178 25.5883C29.4178 22.6851 28.2545 20.6732 26.6464 20.6732C25.2137 20.6732 24.4842 21.8788 24.4842 24.3326C24.4842 24.6276 24.4842 24.9211 24.5254 25.2139V25.2135ZM22.1202 25.4317V25.1337C22.1202 21.8194 23.9057 19.9278 26.9417 19.9278C29.7581 19.9278 31.7607 22.0168 31.7607 25.0558C31.7607 28.1055 29.8152 30.1679 26.8827 30.1679C24.0842 30.1679 22.2193 28.2829 22.1202 25.4317V25.4317ZM34.0813 29.4795C35.3625 29.4795 35.5573 29.2235 35.5573 27.3805V22.8573C35.5573 21.0673 35.3625 20.8116 34.0813 20.7916L34.0419 20.3415C35.7551 20.2428 36.151 20.1834 37.6404 19.8684L37.741 21.6076C38.8605 20.3797 39.7243 19.9274 40.8894 19.9274C42.7978 19.9274 43.8757 21.166 43.8757 23.3512V27.3808C43.8579 27.5352 43.8579 27.6936 43.8579 27.851C43.8579 29.107 44.1907 29.4795 45.3903 29.4795L45.4289 29.9493C44.2898 29.9118 43.4252 29.8714 42.8549 29.8714C42.3057 29.8714 41.4805 29.9118 40.4334 29.9493L40.4679 29.4795C41.4805 29.3211 41.5967 29.127 41.5967 27.3805L41.6182 26.1768V24.4276C41.6182 21.9575 41.1655 21.166 39.9221 21.166C39.154 21.166 38.5061 21.5593 38.1135 22.271C37.9566 22.5656 37.8204 23.0335 37.8204 23.2324V27.3808C37.8397 29.1274 37.9384 29.3215 38.9785 29.4795L39.039 29.9493C37.9384 29.9118 37.1135 29.8714 36.5636 29.8714C35.9915 29.8714 35.1525 29.9118 34.0419 29.9493L34.0813 29.4795V29.4795ZM49.5202 25.2135C49.7184 27.9875 50.6386 29.4974 52.1202 29.4974C53.5347 29.4974 54.38 28.028 54.38 25.5883C54.38 22.6851 53.2215 20.6732 51.6219 20.6732C50.2096 20.6732 49.4827 21.8788 49.4827 24.3326C49.4827 24.6276 49.4827 24.9211 49.5198 25.2139L49.5202 25.2135ZM47.0842 25.4317V25.1337C47.0842 21.8194 48.8742 19.9278 51.9069 19.9278C54.7551 19.9278 56.7558 22.0168 56.7558 25.0558C56.7558 28.1055 54.8119 30.1679 51.8479 30.1679C49.0686 30.1679 47.1837 28.2829 47.0842 25.4317V25.4317ZM58.9536 29.4795C60.2727 29.4795 60.4694 29.2235 60.4694 27.3805V22.8573C60.4694 21.0673 60.2727 20.8116 58.9536 20.7916L58.9139 20.3415C60.6627 20.2428 61.0597 20.1834 62.541 19.8684L62.6289 21.6076C63.7343 20.4001 64.6004 19.9274 65.7588 19.9274C67.0946 19.9274 67.8783 20.4781 68.4356 21.7604C69.636 20.4172 70.518 19.9274 71.718 19.9274C73.5718 19.9274 74.6096 21.1846 74.6096 23.3512V27.3808C74.6096 27.5352 74.59 27.6936 74.59 27.851C74.59 29.107 74.9458 29.4795 76.1224 29.4795L76.1651 29.9493C75.0241 29.9118 74.1603 29.8714 73.607 29.8714C73.0746 29.8714 72.266 29.9118 71.1874 29.9493L71.2263 29.4795C72.266 29.3211 72.3651 29.127 72.3844 27.3805V24.4276C72.3844 21.9957 71.957 21.166 70.7351 21.166C70.0089 21.166 69.2612 21.6076 68.9469 22.271C68.8482 22.5048 68.7518 22.7423 68.6928 23.0172C68.6727 23.1144 68.6519 23.1931 68.6519 23.2324V27.3808C68.6519 29.1274 68.7699 29.3215 69.81 29.4795L69.8527 29.9493C68.8111 29.9118 68.0456 29.8714 67.5258 29.8714C67.0167 29.8714 66.2486 29.9118 65.2267 29.9493L65.2679 29.4795C66.3087 29.3211 66.407 29.127 66.4237 27.3805V24.4276C66.4237 21.9957 65.9941 21.166 64.7736 21.166C64.0312 21.166 63.3614 21.5768 62.9878 22.271C62.8297 22.5838 62.7031 23.0335 62.7031 23.2324V27.3808C62.7228 29.1274 62.8108 29.3215 63.8527 29.4795L63.892 29.9493C62.8108 29.9118 62.0174 29.8714 61.4698 29.8714C60.8972 29.8714 60.0545 29.9118 58.9139 29.9493L58.9536 29.4795V29.4795ZM79.128 16.5938C79.1274 16.4229 79.1606 16.2535 79.2257 16.0954C79.2907 15.9373 79.3864 15.7936 79.5071 15.6726C79.6279 15.5516 79.7713 15.4556 79.9293 15.3902C80.0872 15.3248 80.2565 15.2912 80.4275 15.2914C81.1566 15.2914 81.7436 15.8959 81.7436 16.5938C81.7436 17.3367 81.1755 17.9278 80.4275 17.9278C79.6816 17.9278 79.128 17.3575 79.128 16.5938ZM81.6449 19.8684V26.1768L81.6634 27.3805C81.6634 29.2231 81.8434 29.4788 83.1766 29.4788L83.2178 29.9493C81.9978 29.9118 81.1143 29.8718 80.5065 29.8718C79.9184 29.8718 79.0564 29.9118 77.8675 29.9493L77.9046 29.4788C79.2019 29.4788 79.387 29.2231 79.387 27.3805L79.4052 26.1768V24.1152L79.387 22.858C79.387 21.0673 79.2015 20.8116 77.9046 20.792L77.8675 20.3411C79.6427 20.2243 80.0527 20.1638 81.6449 19.8684V19.8684ZM85.5833 29.5979L85.5061 27.5927L86.5061 27.556C86.9584 29.0677 87.2545 29.3608 88.2965 29.3608C89.1981 29.3608 89.7896 28.891 89.7896 28.1853C89.7896 27.5148 89.3777 27.028 88.1373 26.1964C87.5102 25.7645 87.079 25.4673 86.8438 25.2929C86.331 24.9007 85.9581 24.4276 85.761 23.9C85.6408 23.6046 85.5833 23.2528 85.5833 22.8398C85.5833 21.0888 86.8048 19.9274 88.6486 19.9274C89.3354 19.9274 89.7291 19.986 91.2876 20.3593L91.3302 22.3096L90.3317 22.3504C90.1091 21.0673 89.7102 20.6154 88.7881 20.6154C87.9039 20.6154 87.2738 21.1267 87.2738 21.8187C87.2738 22.5048 87.5904 22.917 88.6111 23.5649C89.5328 24.1753 90.239 24.7226 90.7187 25.1549C91.2698 25.684 91.5855 26.3512 91.5855 27.0936C91.5855 28.8291 90.1273 30.1675 88.2571 30.1675C87.5317 30.1675 86.8438 30.0061 85.5833 29.5979V29.5979ZM93.6657 20.4985C95.2152 20.3797 95.8015 19.7144 96.246 17.6703H97.1291V20.3215H99.6063L99.3295 21.4009H97.1291V26.1964C97.1291 28.5786 97.4449 29.1452 98.7803 29.1452C99.0935 29.1452 99.387 29.1066 99.8609 28.9708V29.5385C99.1941 29.9122 98.2709 30.127 97.3291 30.127C96.4597 30.127 95.6546 29.638 95.3169 28.91C95.0215 28.3014 94.925 27.6936 94.925 26.3916V21.4009H93.6657V20.4985" fill="#E3120B"/>
</svg>
