<svg width="100" height="27" viewBox="0 0 100 27" fill="none" xmlns="http://www.w3.org/2000/svg">
<g clip-path="url(#clip0_629_943)">
<path d="M9.62731 3.24902H11.8179C13.152 3.05249 14.5144 3.22528 15.7572 3.74864C17.3164 4.68668 18.4472 6.19683 18.9086 7.95694C19.2353 8.87931 19.2353 8.87931 20.0232 8.55264H20.6381V1.25056H0.0193198V2.53803H0.864823C1.23224 2.53549 1.59556 2.61529 1.9281 2.77158C2.26063 2.92787 2.55392 3.15668 2.78642 3.44118C3.57428 4.70944 3.70879 6.13142 3.70879 13.5296C3.70879 21.3889 3.53585 23.3105 2.78642 24.2905C2.60141 24.5425 2.36188 24.7494 2.0857 24.8958C1.80953 25.0422 1.50385 25.1243 1.1915 25.136C0.0193199 25.3474 0.0193198 25.3282 0.0193198 25.847C-0.0455024 26.0205 -0.0455024 26.2116 0.0193198 26.3851H13.0285C13.1146 26.2154 13.1595 26.0277 13.1595 25.8374C13.1595 25.6471 13.1146 25.4595 13.0285 25.2898C12.7135 25.2021 12.3923 25.1379 12.0677 25.0976C11.7166 25.0558 11.3696 24.9851 11.0301 24.8862C10.5439 24.5313 10.1588 24.0557 9.91282 23.5064C9.6668 22.957 9.56839 22.353 9.62731 21.754C9.43515 20.4858 9.33907 18.1606 9.33907 16.239V14.721H10.1077C11.0653 14.6917 12.0224 14.7951 12.9517 15.0284C13.3969 15.3035 13.7758 15.6735 14.0615 16.112C14.3471 16.5504 14.5325 17.0466 14.6043 17.5649L14.7772 18.1606H15.9494V9.64795H14.8733L14.7003 10.4742C14.6276 11.0043 14.4315 11.51 14.1278 11.9505C13.8241 12.3911 13.4212 12.7542 12.9517 13.0107C12.4969 13.1461 12.0179 13.1789 11.5489 13.1068H9.33907V11.0315C9.33907 8.87931 9.45437 4.34434 9.53123 3.63334L9.62731 3.24902ZM99.5581 18.4873C98.6498 17.0254 97.2331 15.9509 95.5804 15.4704C94.3134 15.0743 93.1423 14.4201 92.1408 13.5488C91.9154 13.3308 91.7468 13.061 91.6497 12.7629C91.5525 12.4648 91.5298 12.1475 91.5835 11.8386C91.585 11.2327 91.8269 10.6521 92.2561 10.2244C92.5469 9.91977 92.9151 9.69986 93.3212 9.58817C93.7274 9.47648 94.1562 9.47722 94.562 9.5903C95.402 9.82971 96.1617 10.2919 96.7604 10.9279C97.3592 11.5639 97.7748 12.35 97.9632 13.2029C98.2707 14.0676 98.3091 14.0676 98.8664 13.837L99.2122 13.7025V8.91774L98.9624 8.80244C97.0706 8.13801 95.0639 7.86347 93.0631 7.99537C91.3401 8.03903 89.6955 8.72429 88.4513 9.91697C87.887 10.4452 87.445 11.0904 87.1562 11.8074C86.8674 12.5243 86.7389 13.2958 86.7795 14.0676C86.7903 15.2477 87.2588 16.3776 88.0862 17.219C89.0006 18.1184 90.1226 18.7784 91.3529 19.1406C94.3314 20.3128 95.1961 21.0622 95.1961 22.4266C95.2089 23.0019 95.0256 23.5645 94.6764 24.022C94.3272 24.4794 93.8329 24.8045 93.2745 24.9439C92.6035 25.0913 91.9086 25.0913 91.2376 24.9439C90.3591 24.6029 89.5747 24.0571 88.9497 23.3519C88.3247 22.6467 87.8771 21.8024 87.6442 20.8893L87.3944 20.2744H87.0485C86.8832 20.2867 86.721 20.3256 86.5681 20.3897H86.376V25.847H86.7026C88.0008 26.2789 89.3403 26.5751 90.6996 26.731H92.6212C93.4545 26.7921 94.2922 26.7142 95.1 26.5004C96.1255 26.3111 97.0837 25.8568 97.8792 25.1826C98.6748 24.5084 99.2801 23.6378 99.635 22.6572C99.8643 22.1095 99.9819 21.5215 99.9809 20.9277C100.057 20.0912 99.9108 19.2496 99.5581 18.4873V18.4873ZM81.4567 8.55264C80.3052 8.06918 79.0645 7.83466 77.816 7.86447C76.5675 7.89427 75.3394 8.18773 74.2122 8.72558C73.1528 9.2438 72.2138 9.97842 71.4558 10.882C70.6979 11.7856 70.1378 12.8381 69.8118 13.9715C69.3961 15.208 69.22 16.5123 69.2929 17.8147C69.2792 18.5234 69.3371 19.2315 69.4659 19.9285C69.7762 21.6422 70.6035 23.2199 71.8367 24.4496C73.0699 25.6794 74.6499 26.5023 76.3644 26.8078C77.481 26.9485 78.6107 26.9485 79.7272 26.8078C80.8858 26.6036 81.9947 26.1797 82.9939 25.5588C83.8205 25.0954 84.5201 24.4354 85.0308 23.6372C84.9981 23.5119 84.9403 23.3946 84.8611 23.2923C84.7818 23.1899 84.6827 23.1046 84.5697 23.0415C84.3503 23.1209 84.1433 23.2309 83.9547 23.3682C82.999 23.9981 81.8704 24.3138 80.7265 24.2713C79.9672 24.3226 79.2061 24.2044 78.4982 23.9252C77.7902 23.6461 77.1533 23.2129 76.6335 22.6572C76.2313 22.2837 75.8994 21.8411 75.6534 21.3505C75.0563 20.1559 74.7346 18.8426 74.7119 17.5073V16.7579H85.3575V16.3735C85.381 15.9896 85.381 15.6045 85.3575 15.2206C85.3537 13.8637 84.9908 12.5321 84.3056 11.3609C83.6205 10.1898 82.6376 9.22088 81.4567 8.55264V8.55264ZM76.0954 15.2014H74.7503V14.0676C75.1923 11.166 76.2876 9.43657 77.6327 9.43657C78.9778 9.43657 79.5543 11.1468 79.8041 14.279V15.1629H78.6511L76.0954 15.2014ZM48.4628 7.91851C47.7988 7.89276 47.1388 8.03137 46.5412 8.32204C45.2425 8.95277 44.1935 10.0018 43.5627 11.3005L43.3129 11.7617V7.91851H43.2169C42.9863 7.91851 35.8764 9.34049 35.6458 9.43657C35.4152 9.53265 35.492 9.55187 35.492 9.89776C35.492 10.2436 35.492 10.3013 35.6458 10.3205L36.3952 10.4742C36.6051 10.4794 36.811 10.5322 36.9975 10.6288C37.1839 10.7253 37.346 10.8631 37.4713 11.0315C37.9517 11.6656 38.0478 12.7802 38.0478 17.5265C38.1427 19.6632 38.0527 21.8042 37.7787 23.9254C37.7142 24.2453 37.5521 24.5372 37.3146 24.761C37.0771 24.9847 36.776 25.1292 36.4528 25.1745L35.7995 25.309H35.5497V25.847C35.48 26.0262 35.48 26.2251 35.5497 26.4043H46.2914V25.847C46.3287 25.6631 46.3287 25.4736 46.2914 25.2898C45.6447 25.2646 45.0015 25.1809 44.3698 25.04C44.0258 24.86 43.7444 24.5801 43.5626 24.2371C43.3808 23.8941 43.3072 23.504 43.3514 23.1184C43.1976 22.0038 43.1208 18.7371 43.1592 16.239C43.1976 13.741 43.1592 13.5872 43.3706 13.4143C44.0136 12.9213 44.8093 12.6696 45.6189 12.7033C46.382 12.7199 47.1312 12.9105 47.8095 13.2606C48.0446 13.3911 48.2969 13.4881 48.5589 13.5488C48.5589 13.5488 50.4805 8.89852 50.4805 8.68715C50.2346 8.4014 49.9213 8.18147 49.569 8.04726C49.2167 7.91305 48.8365 7.8688 48.4628 7.91851V7.91851ZM35.5112 15.9892C35.4442 14.6161 35.0499 13.2788 34.3614 12.0889C33.6728 10.8989 32.7099 9.89074 31.5528 9.14833C30.1777 8.40649 28.6478 7.99746 27.0859 7.95407C25.5241 7.91069 23.9738 8.23417 22.5597 8.89852C20.5602 9.95287 19.0506 11.7451 18.3514 13.8947C17.6292 16.3013 17.6292 18.867 18.3514 21.2736C18.73 22.5889 19.4376 23.786 20.4075 24.7517C21.6154 25.9303 23.1729 26.6855 24.8464 26.9039C25.9206 26.9937 27.0004 26.9937 28.0747 26.9039C28.47 26.8438 28.8614 26.7603 29.2468 26.6541C30.8109 26.2166 32.2181 25.3426 33.3037 24.1346C34.3892 22.9265 35.1083 21.4342 35.3767 19.8324C35.5686 18.5607 35.6137 17.2712 35.5112 15.9892V15.9892ZM27.5174 25.5972C25.5958 26.1737 24.1546 24.3097 23.6742 20.3897C23.4978 18.3374 23.4978 16.2737 23.6742 14.2214C24.0585 11.0699 25.0385 9.475 26.5566 9.475C26.8629 9.45602 27.1692 9.51067 27.4501 9.63436C27.7309 9.75806 27.978 9.94721 28.1707 10.186C29.4582 11.4735 30.0923 14.0292 30.0923 17.8724C30.2522 20.0474 29.9104 22.2301 29.0931 24.2521C28.7322 24.8418 28.1739 25.2844 27.5174 25.5011V25.5972V25.5972ZM62.1062 8.30283C61.564 8.23306 61.015 8.23306 60.4728 8.30283C59.432 8.30194 58.4031 8.52476 57.4559 8.95617L56.8602 9.20598V5.03611C56.9643 3.62886 56.9643 2.21584 56.8602 0.808594C56.6296 0.808594 49.2891 2.21136 49.1738 2.26901C49.1171 2.41088 49.1171 2.5691 49.1738 2.71098C49.1738 3.11451 49.1738 3.0953 50.0385 3.28746C50.2813 3.3419 50.5145 3.43259 50.7303 3.55648C51.1054 3.90921 51.3551 4.37477 51.4413 4.88238C51.6601 6.34476 51.7309 7.82547 51.6527 9.30206V26.1737L52.1715 26.289C52.9401 26.4619 55.1116 26.827 55.8225 26.9039C57.2423 27.0168 58.6688 27.0168 60.0885 26.9039C61.6643 26.7429 63.1664 26.155 64.4328 25.2035C65.6992 24.252 66.682 22.973 67.2753 21.5042C67.6289 20.5615 67.8739 19.5816 68.0055 18.5834C68.1199 17.2313 68.0747 15.8704 67.871 14.5288C67.6648 13.025 67.0011 11.621 65.9698 10.5072C64.9386 9.39348 63.5897 8.62388 62.1062 8.30283V8.30283ZM57.0716 25.2705C57.0716 25.0207 56.8794 16.6041 56.9179 13.2413V10.6087L57.4751 10.4742C57.8511 10.4204 58.2329 10.4204 58.6089 10.4742C59.0247 10.432 59.443 10.5264 59.8003 10.7433C60.5179 11.2385 61.1138 11.8901 61.5432 12.649C61.9725 13.4079 62.2242 14.2543 62.2791 15.1245C62.4191 16.5238 62.4191 17.9335 62.2791 19.3328C62.1641 21.3665 61.3805 23.3053 60.0501 24.8478C59.6725 25.2065 59.1982 25.4469 58.6857 25.5396C58.2979 25.607 57.9014 25.607 57.5136 25.5396C57.1485 25.5396 57.1484 25.4243 57.1484 25.2705H57.0716Z" fill="black"/>
</g>
<defs>
<clipPath id="clip0_629_943">
<rect width="100" height="26.1914" fill="white" transform="translate(0 0.808594)"/>
</clipPath>
</defs>
</svg>
