<svg width="160" height="24" viewBox="0 0 160 24" fill="none" xmlns="http://www.w3.org/2000/svg">
<g clip-path="url(#clip0_629_1029)">
<path d="M23.9551 12.0232C23.9551 18.6379 18.5929 24.0001 11.9769 24.0001C5.36221 24.0001 0 18.6379 0 12.0232C0 5.4086 5.36221 0.0463867 11.9769 0.0463867C18.5929 0.0463867 23.9551 5.4086 23.9551 12.0232Z" fill="#00ABE6"/>
<path d="M35.1488 17.1637C33.2635 17.1637 32.2113 16.0101 32.2113 13.9752V3.646H27.5381V13.9485C27.5381 18.4722 30.2993 21.0572 35.1488 21.0572C39.9983 21.0572 42.7595 18.4722 42.7595 13.9485V3.646H38.0863V13.9752C38.0863 16.0101 37.0341 17.1637 35.1488 17.1637V17.1637Z" fill="#33261C"/>
<path d="M51.0079 21.0568C55.1043 21.0568 57.7908 18.8724 57.7908 15.6305C57.7908 13.3179 56.4075 11.5341 52.7384 10.53L51.4566 10.1775C49.6246 9.67544 48.9464 9.12533 48.9464 8.31886C48.9464 7.46432 49.6994 6.98899 51.0293 6.98899C52.6422 6.98899 54.3727 7.89159 55.5797 8.92238L57.9136 5.98491C56.0817 4.3239 53.6196 3.31982 51.0079 3.31982C47.061 3.31982 44.2998 5.45617 44.2998 8.74614C44.2998 11.283 45.9555 12.944 49.0211 13.7452L50.0786 14.0229C52.3645 14.6264 53.1443 15.0804 53.1443 15.983C53.1443 16.9123 52.3378 17.3876 50.9812 17.3876C48.973 17.3876 47.3121 16.6613 45.9555 15.4542L43.6963 18.2956C45.5816 20.0527 48.22 21.0568 51.0079 21.0568V21.0568Z" fill="#33261C"/>
<path d="M71.128 20.7314H75.8813L69.6219 3.646H64.1955L57.9414 20.7314H62.5612L63.6454 17.5429H70.0491L71.128 20.7314ZM64.8258 14.0713L66.8606 8.09492L68.8688 14.0713H64.8258Z" fill="#33261C"/>
<path d="M84.8961 20.7314H89.5693V7.41663H94.6485V3.646H79.8223V7.41663H84.8961V20.7314Z" fill="#33261C"/>
<path d="M103.402 21.0568C108.524 21.0568 112.268 17.4143 112.268 12.2123C112.268 7.0157 108.524 3.31982 103.402 3.31982C98.2752 3.31982 94.5312 7.0157 94.5312 12.2123C94.5312 17.4143 98.2752 21.0568 103.402 21.0568ZM103.402 17.19C100.967 17.19 99.2793 15.1765 99.2793 12.2123C99.2793 9.24817 100.967 7.19195 103.402 7.19195C105.838 7.19195 107.52 9.24817 107.52 12.2123C107.52 15.1765 105.838 17.19 103.402 17.19Z" fill="#33261C"/>
<path d="M113.884 20.7314H120.613C125.666 20.7314 129.26 17.2118 129.26 12.1914C129.26 7.16561 125.666 3.646 120.613 3.646H113.884V20.7314ZM118.482 17.0409V7.34186H120.613C123.075 7.34186 124.587 9.27526 124.587 12.1914C124.587 15.1021 123.075 17.0409 120.613 17.0409H118.482Z" fill="#33261C"/>
<path d="M141.584 20.7314H146.337L140.078 3.646H134.652L128.397 20.7314H133.017L134.101 17.5429H140.505L141.584 20.7314ZM135.282 14.0713L137.317 8.09492L139.325 14.0713H135.282Z" fill="#33261C"/>
<path d="M153.949 14.5787L160 3.646H154.729L151.588 10.4289L148.421 3.646H143.145L149.201 14.5787V20.7314H153.949V14.5787Z" fill="#33261C"/>
</g>
<defs>
<clipPath id="clip0_629_1029">
<rect width="160" height="23.9537" fill="white" transform="translate(0 0.0463867)"/>
</clipPath>
</defs>
</svg>
