<svg width="180" height="28" viewBox="0 0 180 28" fill="none" xmlns="http://www.w3.org/2000/svg">
<g clip-path="url(#clip0_701_889)">
<path d="M10.3159 8.84608V18.5805C11.6311 17.8702 12.5521 16.6335 12.9992 15.239L13.1046 15.2919C12.8149 18.7647 10.4473 22.2372 6.76415 22.2372C3.05452 22.2372 0.318359 19.475 0.318359 15.0547C0.318359 11.7401 2.47564 9.66133 5.23823 7.79329C4.83457 7.6874 4.41887 7.63434 4.00156 7.63545C2.10709 7.63545 1.0022 8.92461 1.0022 10.2402H0.844364C0.817928 10.0559 0.817927 9.87204 0.817927 9.68776C0.817927 7.34621 2.0546 4.50469 5.05395 4.50469C6.97447 4.50469 8.44791 6.26737 10.6841 6.26737C11.5787 6.26737 12.6835 5.84634 13.1306 4.87286H13.2095C13.1835 6.58344 12.6575 8.34612 10.3159 8.84608V8.84608ZM11.7365 18.8172C10.4209 20.2113 9.00035 21.3955 7.15875 21.3955C3.73875 21.3955 1.10795 18.7119 1.10795 14.818C1.10795 12.5293 2.05499 11.293 3.10739 9.8456H3.00203C2.34423 10.5034 0.607992 12.1607 0.607992 14.9758C0.607992 19.2907 3.31771 21.948 6.8695 21.948C9.34246 21.948 11.0262 20.2382 11.7894 18.8437L11.7365 18.8172V18.8172ZM12.7885 6.05744C12.3414 6.89912 11.3944 7.97757 9.47387 7.97757C7.55335 7.97757 5.79067 6.66197 4.23832 6.66197C2.81737 6.66197 1.84428 7.6094 1.47572 8.31968L1.50216 8.37256C2.00212 7.8726 2.76488 7.37264 4.00156 7.37264C6.05348 7.37264 7.36907 8.63575 9.44743 8.63575C11.6576 8.63575 12.6571 7.18837 12.8414 6.08387L12.7885 6.05744V6.05744ZM5.4746 7.8726C4.13296 9.26711 2.89629 10.793 2.89629 13.7659C2.89629 15.3968 3.44873 17.0806 4.6854 18.133L5.44817 17.738V10.6877L4.73788 11.0558L4.60648 10.7926L8.28968 8.79282C7.29015 8.58288 6.3956 8.1358 5.4746 7.8726V7.8726ZM10.0263 8.89856C9.84203 8.92461 9.65814 8.92461 9.44743 8.92461C9.07927 8.92461 8.73715 8.89856 8.39503 8.81925V16.5013L4.9486 18.3701C5.65888 18.8961 6.527 19.2118 7.63188 19.2118C8.52644 19.2118 9.31564 19.0275 10.0259 18.7119V8.89856H10.0263V8.89856ZM6.23776 10.2406L5.7378 10.5298V17.5809L6.23776 17.3177V10.2406V10.2406ZM21.3655 11.2401V20.3431C21.3655 22.8686 19.1293 24.5792 16.6299 25.0787L16.5775 24.9734C17.8141 24.3681 18.5244 23.1318 18.5244 21.8162V12.3975L17.1038 11.1087L16.5514 11.7136V19.054L17.3406 19.7643V19.8171L15.2098 22.1323L12.7632 19.8961V19.7907L13.7103 18.7908V7.16232L16.4989 4.18979L16.5514 4.21584V11.2666L18.8405 8.79359L21.2345 10.9513L21.6816 10.4774L21.8923 10.662L21.3655 11.2401V11.2401ZM13.9991 19.8432V19.7907L14.5516 19.2379V6.71485L13.9991 7.29411V18.9751L13.1571 19.8171V19.8696L15.209 21.7112L15.5772 21.2902L13.9991 19.8432V19.8432ZM19.3661 11.9764L17.6559 10.5034L17.2877 10.898L18.8137 12.2665V21.7377C18.8137 22.369 18.6822 23.0264 18.4455 23.395L18.4719 23.4214C19.1297 22.9475 19.3665 22.2372 19.3665 21.3166V11.9764H19.3661V11.9764ZM25.5487 16.5282V17.8698L28.1006 19.8692L29.574 18.2908L29.7847 18.5012L26.3647 22.1579L22.8918 19.3693L22.3658 19.9217L22.1551 19.7114L22.7604 19.08V12.4239L27.7328 8.7932L30.3375 13.0028L25.5487 16.5282V16.5282ZM23.6017 18.8437V12.1607L23.0493 12.5557V19.1069L26.3118 21.7641L26.7329 21.317L23.6017 18.8437V18.8437ZM25.6016 10.7402L25.5487 10.7666V16.16L27.8902 14.4498L25.6016 10.7402ZM26.2854 10.2142L25.8119 10.5559L28.1274 14.2655L28.6009 13.9234L26.2854 10.2142V10.2142ZM47.4865 22.1319L43.8294 18.9747L41.0407 22.1319L37.2522 18.8693V13.7131H36.5155C35.8577 13.7131 35.5159 14.1341 35.3577 14.6337H35.2788C35.1948 14.307 35.1507 13.9714 35.1474 13.6342C35.1474 12.9499 35.3317 11.1612 37.2522 11.1612V6.63593C37.2522 5.7678 36.2262 5.42569 36.2262 4.26793C36.2262 2.76884 37.6468 1.29541 40.2515 0.374023L40.3569 0.452944C39.4099 1.00577 38.9099 1.53178 38.9099 2.6631C38.9099 4.39973 40.5937 3.95225 40.5937 6.68841V7.74081L43.6719 4.50469L46.908 7.68793L49.9599 4.50469L52.9064 7.39869V17.1331L47.4865 22.1319V22.1319ZM38.0943 18.4487V12.8978H36.6208C35.8577 12.8978 35.5159 13.3974 35.4631 13.8449L35.4891 13.8713C35.7523 13.5821 36.0155 13.4242 36.6204 13.4242H37.541V18.7387L41.0139 21.738L41.4085 21.2641L38.0943 18.4487V18.4487ZM38.0943 6.37273C38.0943 5.29428 37.1472 4.92573 37.1472 4.24189C37.1472 3.29446 37.5154 2.50564 38.0943 1.76893L38.0418 1.74288C37.2526 2.34819 36.5159 3.32167 36.5159 4.26832C36.5159 5.21575 37.5418 5.66284 37.5418 6.50491V11.1616H38.0943V6.37273ZM43.6455 9.00392L41.6461 7.05696L40.5937 8.13541V17.4488L42.9877 19.4746L43.6455 18.7379V9.00392ZM44.4872 18.3962V8.63575L42.251 6.4256L41.8299 6.84664L43.9347 8.87212V18.6854L47.4865 21.7637L47.9076 21.3687L44.4872 18.3962ZM49.5913 8.6618L47.934 7.08301L46.987 8.05649V17.4227L49.5653 19.685L49.5913 19.6589V8.6618V8.6618ZM50.433 8.29364L48.5125 6.4256L48.1179 6.84664L49.8806 8.5304V19.5275L50.433 19.0011V8.29364V8.29364ZM61.6121 22.1319L59.1127 19.8692L56.8765 22.1319L54.1403 19.7114L53.7718 20.106L53.5614 19.8957L54.0349 19.3957V12.3454L58.9813 8.76716L61.8228 10.9773L62.3227 10.4509L62.5334 10.6616L61.9546 11.2666V18.5544L63.3487 19.8432L63.7962 19.3697L64.0065 19.5539L61.6121 22.1319V22.1319ZM54.877 19.2118V12.1082L54.3246 12.5028V19.475L56.8504 21.7377L57.2714 21.3166L54.877 19.2118V19.2118ZM59.1127 12.2925L56.9554 10.6088L56.8765 10.6616V18.3173L58.6656 19.8692L59.1127 19.4221V12.2925V12.2925ZM59.9547 19.4486V11.8979L57.7185 10.0824L57.1925 10.4505L59.4023 12.1872V19.7114L61.6124 21.7108L62.007 21.2898L59.9547 19.4486V19.4486ZM69.2681 13.5552H71.9778V19.1854L67.7947 22.1319C67.2422 21.5005 66.4526 21.0534 65.4795 21.0534C64.6903 21.0534 64.0586 21.3166 63.2169 22.0269L63.0855 21.974L66.6637 16.7649H64.4536V11.8715L68.8474 8.81964C69.3734 9.24068 69.768 9.47705 70.4523 9.47705C70.9787 9.47705 71.7414 9.37169 72.3203 8.89856L72.4257 8.95104L69.2681 13.5552V13.5552ZM66.3216 20.2903C65.5585 20.2903 64.9535 20.5535 64.4271 20.9216V20.9745C64.8482 20.7902 65.2692 20.7377 65.6638 20.7377C66.2687 20.7377 67.2162 21.0274 67.8475 21.7641L68.4528 21.317C67.9525 20.7377 67.3476 20.2903 66.3216 20.2903V20.2903ZM69.1363 15.8704H67.6629L64.5846 20.3171L64.611 20.3696C65.3738 19.8171 66.1105 19.449 67.0051 19.449C67.7943 19.449 68.6099 19.8171 69.1099 20.4485L69.1363 20.4225V15.8704ZM65.2953 15.8704V11.6351L64.7428 12.0297V16.4496H66.8737L67.2947 15.8707H65.2953V15.8704ZM70.794 10.7137C70.2416 11.1087 69.9259 11.319 69.0049 11.319C68.4785 11.319 67.8471 11.0823 67.3476 10.5559L67.2951 10.5823V14.4234H68.2946L70.8204 10.7398L70.794 10.7137V10.7137ZM69.5313 10.477C69.0578 10.477 68.4528 10.2406 68.0578 9.7142L67.4 10.1613C67.9 10.7666 68.3735 11.0294 69.1099 11.0294C69.5834 11.0294 70.2676 10.8976 70.9779 10.2923L71.0039 10.2138C70.5572 10.3984 70.0048 10.477 69.5313 10.477V10.477ZM69.9784 15.0026H68.2682L67.8736 15.5551H69.4259V20.6588L69.9784 20.2642V15.0026ZM81.0544 11.2401V20.3431C81.0544 22.8686 78.8182 24.5792 76.3188 25.0787L76.2663 24.9734C77.503 24.3681 78.2133 23.1318 78.2133 21.8162V12.3975L76.7927 11.1087L76.2403 11.7136V19.054L77.0295 19.7643V19.8171L74.8986 22.1323L72.4521 19.8961V19.7907L73.3991 18.7908V7.16232L76.1878 4.18979L76.2403 4.21584V11.2666L78.5293 8.79359L80.9234 10.9513L81.3705 10.4774L81.5812 10.662L81.0544 11.2401V11.2401ZM73.688 19.8432V19.7907L74.2404 19.2379V6.71485L73.688 7.29372V18.9747L72.8459 19.8167V19.8692L74.8978 21.7108L75.266 21.2898L73.688 19.8432V19.8432ZM79.055 11.9764L77.3448 10.5034L76.9766 10.898L78.5025 12.2665V21.7377C78.5025 22.369 78.3711 23.0264 78.1343 23.395L78.1608 23.4214C78.8186 22.9475 79.0553 22.2372 79.0553 21.3166V11.9764H79.055ZM85.8429 22.1319L83.5802 20.0535L83.0538 20.6059L82.8431 20.3952L83.4484 19.7378V12.1347L82.3436 11.0823L81.9225 11.5562L81.7118 11.3455L84.0794 8.76716L86.1842 10.6616L86.7106 10.0828L86.9474 10.267L86.2896 10.9773V18.6598L87.5527 19.8436L88.1315 19.2383L88.3419 19.449L85.8429 22.1319V22.1319ZM84.2905 19.5539V11.7136L82.9224 10.4509L82.5543 10.872L83.7381 12.0033V19.8171L85.8429 21.7112L86.2375 21.2902L84.2905 19.5539V19.5539ZM85.0797 8.55683L82.9224 6.58383L84.8958 4.47904L87.0531 6.45204L85.0797 8.55683ZM83.7381 6.1624L83.3435 6.55701L85.0533 8.16184L85.4479 7.71476L83.7381 6.1624V6.1624ZM96.9675 22.1319L94.6784 20.0535V12.3714L93.2839 11.1087L92.5472 11.8979V19.0011L93.3628 19.7639V19.8692L91.2055 22.1319L88.7586 19.8957V19.8167L89.7061 18.8172V12.1872L88.4694 11.0558L87.9694 11.6083L87.7591 11.398L90.1531 8.7932L92.5472 10.9244V11.4504L95.0466 8.7932L97.3877 10.898L97.9141 10.3456L98.1509 10.5559L97.5195 11.2137V18.7379L98.7033 19.8428L99.2822 19.2114L99.4925 19.4218L96.9675 22.1319V22.1319ZM90.0217 19.8432V19.7907C90.0217 19.8432 90.5481 19.2643 90.5481 19.2643V11.7922L89.0483 10.4241L88.6797 10.8187L89.9953 12.0289V18.9743L89.1797 19.8164V19.8688L91.2055 21.7104L91.6262 21.2634L90.0217 19.8432V19.8432ZM95.5201 19.6329V11.9243L93.8892 10.4509L93.4682 10.898L94.9677 12.2396V19.8957L96.9407 21.7373L97.3617 21.2898L95.5201 19.6329V19.6329ZM104.386 26.8675C103.519 25.9204 102.913 25.5258 102.098 25.5258C101.23 25.5258 100.23 25.8679 99.2037 26.4204L99.1248 26.3418L102.755 22.1323L100.177 20.0803L99.6772 20.6067L99.4669 20.4225L100.045 19.7911V12.3454L105.044 8.76716L107.833 10.9773L108.307 10.4509L108.517 10.6616L107.965 11.2666V20.2646C107.965 21.6327 108.727 21.5802 108.727 22.6058C108.727 23.7896 107.017 24.8945 104.386 26.8675ZM100.887 19.58V12.1347L100.335 12.5297V19.8171L102.939 21.9219L103.334 21.448L100.887 19.58V19.58ZM102.729 24.842C101.861 24.842 101.071 25.1052 100.335 25.6047V25.6576C100.809 25.4733 101.335 25.2366 102.229 25.2366C103.045 25.2366 103.729 25.6837 104.413 26.4732L104.939 26.0522C104.281 25.2894 103.492 24.842 102.729 24.842ZM105.939 22.3161C105.281 21.8951 105.123 21.448 105.123 20.3167V19.8428L100.756 24.8941L100.782 24.9201C101.624 24.4206 102.387 24.0524 103.624 24.0524C104.676 24.0524 105.386 24.473 106.202 25.1573C106.702 24.7362 107.044 24.3156 107.044 23.6578C107.044 23.1318 106.596 22.7372 105.939 22.3161V22.3161ZM105.123 12.2925L102.939 10.5827L102.886 10.6352V18.7119L104.571 20.0275L105.123 19.3961V12.2925V12.2925ZM106.728 21.948C106.044 21.4216 105.965 20.9745 105.965 19.8432V11.8454L103.755 10.0563L103.255 10.3984L105.412 12.1082V20.2113C105.412 21.3427 105.465 21.6587 106.175 22.1319C106.807 22.5529 107.306 23 107.306 23.6053C107.306 23.7628 107.28 24.026 107.28 24.026L107.306 24.0524C107.438 23.9206 107.596 23.7103 107.596 23.3682C107.596 22.7897 107.307 22.3951 106.728 21.948V21.948ZM113.042 22.1319L110.622 20.2378L110.122 20.7902L109.912 20.5795L110.49 19.9482V10.7402H108.964L108.911 10.6877L109.832 9.31921H110.49V7.55692L113.279 4.584L113.331 4.63688V9.3196H115.436L115.489 9.37247L114.568 10.7405H113.331V18.7123L114.779 19.8175L115.331 19.2122L115.541 19.4225L113.042 22.1319V22.1319ZM111.332 7.10945L110.78 7.71476V9.3196H111.332V7.10945ZM111.332 19.6853V10.7402H110.78V20.001L113.016 21.7377L113.41 21.3166L111.332 19.6853V19.6853ZM124.144 11.5033V18.8697L119.698 22.1583L116.357 19.6329L115.962 20.0799L115.752 19.8692L116.225 19.3432V12.1347L120.882 8.7932L123.987 11.2141L124.486 10.6877L124.697 10.898L124.144 11.5033V11.5033ZM117.068 19.0804V11.8979L116.515 12.2925V19.3697L119.672 21.7901L120.172 21.422L117.068 19.0804V19.0804ZM121.303 12.3714L119.093 10.6348L119.067 10.6612V18.5012L121.303 20.1849V12.3714ZM122.145 11.8979L119.698 10.0034L119.199 10.3716L121.593 12.2132V20.3956L122.145 19.975V11.8979ZM134.195 22.1319L131.906 20.0535V12.3714L130.511 11.1087L129.775 11.8979V19.0011L130.59 19.7639V19.8692L128.433 22.1319L125.986 19.8957V19.8167L126.933 18.8172V12.1872L125.697 11.0558L125.197 11.6083L124.986 11.398L127.38 8.7932L129.775 10.9244V11.4504L132.274 8.7932L134.615 10.898L135.141 10.3456L135.378 10.5559L134.747 11.2137V18.7379L135.931 19.8428L136.51 19.2114L136.72 19.4218L134.195 22.1319V22.1319ZM127.249 19.8432V19.7907C127.249 19.8432 127.775 19.2643 127.775 19.2643V11.7922L126.276 10.4241L125.907 10.8187L127.223 12.0289V18.9743L126.407 19.8164V19.8688L128.433 21.7104L128.854 21.2634L127.249 19.8432V19.8432ZM132.747 19.6329V11.9243L131.117 10.4509L130.696 10.898L132.195 12.2396V19.8957L134.168 21.7373L134.589 21.2898L132.747 19.6329V19.6329ZM150.448 22.1319C149.711 21.3427 149.448 21.0795 148.58 20.8427V25.9993L148.527 26.0254L147.474 25.078L144.423 27.893L144.37 27.867V20.7902C143.449 21.0006 142.476 21.4745 141.528 22.4211L141.476 22.3951C141.66 20.3692 142.66 18.8697 144.369 18.2908V13.1606H143.817C143.054 13.1606 142.633 13.5552 142.265 14.2655H142.186C142.107 14.0291 142.054 13.6602 142.054 13.0557C142.054 11.9504 142.87 10.793 144.212 10.793H144.369V7.95152L143.291 6.97804L142.764 7.50443L142.58 7.32016L145.237 4.50508L147.71 6.76772V9.16176L148.289 8.5304V5.50461H148.579V8.2672L152.077 4.50469L155.05 7.2148V18.6594L150.448 22.1319V22.1319ZM144.37 19.8167C143.292 20.0271 142.529 20.6849 142.029 21.553L142.055 21.6059C142.792 20.9745 143.476 20.6853 144.37 20.4745V19.8167V19.8167ZM145.213 12.2665H143.766C142.766 12.2665 142.371 12.8978 142.345 13.6345L142.371 13.6606C142.687 13.1342 143.002 12.9503 143.634 12.8718H144.66V27.21L145.213 26.6836V12.2665V12.2665ZM145.213 7.53048L143.897 6.32063L143.476 6.76772L144.66 7.81973V10.7926H145.213V7.53048V7.53048ZM148.291 9.02996L147.712 9.63528V24.8684L148.291 25.3948V9.02996V9.02996ZM151.737 8.42504L150.185 7.00448L148.58 8.74111V18.0016C149.948 18.1334 150.895 18.528 151.711 19.4221L151.737 19.3961V8.42504V8.42504ZM148.58 19.8167V20.501C149.475 20.7113 149.843 20.9745 150.474 21.7108L151.079 21.2373C150.448 20.4481 149.816 19.975 148.58 19.8167V19.8167ZM152.579 8.00439L150.79 6.34668L150.369 6.79376L152.026 8.31968V20.5535L152.579 20.1324V8.00439V8.00439ZM164.234 11.5033V18.8697L159.787 22.1583L156.446 19.6329L156.051 20.0799L155.841 19.8692L156.314 19.3432V12.1347L160.971 8.7932L164.076 11.2141L164.575 10.6877L164.786 10.898L164.234 11.5033V11.5033ZM157.157 19.0804V11.8979L156.604 12.2925V19.3697L159.761 21.7901L160.261 21.422L157.157 19.0804V19.0804ZM161.392 12.3714L159.183 10.6348L159.156 10.6612V18.5012L161.392 20.1849V12.3714ZM162.234 11.8979L159.787 10.0034L159.288 10.3716L161.682 12.2132V20.3956L162.234 19.975V11.8979ZM170.337 13.5552H173.047V19.1854L168.864 22.1319C168.312 21.5005 167.522 21.0534 166.549 21.0534C165.76 21.0534 165.128 21.3166 164.286 22.0269L164.155 21.974L167.733 16.7649H165.523V11.8715L169.916 8.81964C170.443 9.24068 170.837 9.47705 171.521 9.47705C172.048 9.47705 172.81 9.37169 173.389 8.89856L173.495 8.95104L170.337 13.5552ZM167.391 20.2903C166.628 20.2903 166.023 20.5535 165.497 20.9216V20.9745C165.918 20.7902 166.338 20.7377 166.733 20.7377C167.339 20.7377 168.285 21.0274 168.917 21.7641L169.522 21.317C169.022 20.7377 168.417 20.2903 167.391 20.2903V20.2903ZM170.206 15.8704H168.733L165.655 20.3171L165.681 20.3696C166.444 19.8171 167.18 19.449 168.075 19.449C168.864 19.449 169.68 19.8171 170.18 20.4485L170.206 20.4225V15.8704H170.206ZM166.365 15.8704V11.6351L165.812 12.0297V16.4496H167.943L168.364 15.8707H166.365V15.8704ZM171.863 10.7137C171.311 11.1087 170.995 11.319 170.074 11.319C169.548 11.319 168.916 11.0823 168.417 10.5559L168.364 10.5823V14.4234H169.363L171.889 10.7398L171.863 10.7137V10.7137ZM170.6 10.477C170.127 10.477 169.522 10.2406 169.127 9.7142L168.469 10.1613C168.969 10.7666 169.443 11.0294 170.18 11.0294C170.653 11.0294 171.337 10.8976 172.048 10.2923L172.074 10.2138C171.627 10.3984 171.074 10.477 170.6 10.477V10.477ZM171.048 15.0026H169.338L168.943 15.5551H170.495V20.6588L171.048 20.2642V15.0026ZM177.415 22.1319L174.994 20.2378L174.494 20.7902L174.284 20.5795L174.862 19.9482V10.7402H173.336L173.284 10.6877L174.205 9.31921H174.862V7.55692L177.651 4.584L177.704 4.63688V9.3196H179.808L179.861 9.37247L178.94 10.7405H177.704V18.7123L179.151 19.8175L179.703 19.2122L179.914 19.4225L177.415 22.1319V22.1319ZM175.704 7.10945L175.152 7.71476V9.3196H175.704V7.10945ZM175.704 19.6853V10.7402H175.152V20.001L177.388 21.7377L177.783 21.3166L175.704 19.6853Z" fill="#231F20"/>
</g>
<defs>
<clipPath id="clip0_701_889">
<rect width="180" height="27.9914" fill="white" transform="translate(0 0.00878906)"/>
</clipPath>
</defs>
</svg>
