<svg width="140" height="37" viewBox="0 0 140 37" fill="none" xmlns="http://www.w3.org/2000/svg">
<g clip-path="url(#clip0_629_945)">
<path d="M35.8188 22.3809C35.1691 22.3809 34.5734 22.7057 34.2485 23.2472C33.9237 23.7887 33.9237 24.4926 34.2485 25.0341C34.5734 25.5756 35.1691 25.9276 35.8188 25.9005C36.7935 25.8734 37.5516 25.0883 37.5516 24.1407C37.5786 23.1931 36.7935 22.4079 35.8188 22.3809Z" fill="#EC6519"/>
<path d="M33.5718 26.9834C32.7325 26.9834 32.0557 27.6603 32.0557 28.4725C32.0557 29.3118 32.7325 29.9886 33.5718 29.9886C34.4111 29.9886 35.088 29.3118 35.088 28.4725C35.088 27.6603 34.4111 26.9834 33.5718 26.9834Z" fill="#EC6519"/>
<path d="M30.2837 33.1808C31.001 33.1569 31.5631 32.556 31.5392 31.8387C31.5154 31.1215 30.9145 30.5593 30.1972 30.5832C29.4799 30.6071 28.9178 31.2079 28.9417 31.9252C28.9656 32.6425 29.5664 33.2047 30.2837 33.1808Z" fill="#EC6519"/>
<path d="M26.4787 33.021C25.8831 33.021 25.4229 33.4813 25.4229 34.0769C25.4229 34.6725 25.8831 35.1328 26.4787 35.1328C27.0744 35.1328 27.5346 34.6725 27.5346 34.0769C27.5346 33.4813 27.0744 33.021 26.4787 33.021Z" fill="#EC6519"/>
<path d="M22.7968 34.2935C22.3094 34.2935 21.9033 34.6996 21.9033 35.1869C21.9033 35.6742 22.3094 36.0803 22.7968 36.0803C23.2841 36.0803 23.6902 35.6742 23.6902 35.1869C23.7173 34.6996 23.3112 34.2935 22.7968 34.2935Z" fill="#EC6519"/>
<path d="M19.3584 34.8076C18.9252 34.8076 18.5732 35.1596 18.5732 35.5928C18.5732 36.0259 18.9252 36.3779 19.3584 36.3779C19.7916 36.3779 20.1435 36.0259 20.1435 35.5928C20.1165 35.1596 19.7645 34.8076 19.3584 34.8076Z" fill="#EC6519"/>
<path d="M15.8925 34.2935C15.4051 34.2935 14.999 34.6996 14.999 35.1869C14.999 35.6742 15.4051 36.0803 15.8925 36.0803C16.3798 36.0803 16.7859 35.6742 16.7859 35.1869C16.7859 34.6996 16.3798 34.2935 15.8925 34.2935Z" fill="#EC6519"/>
<path d="M12.2101 32.9937C11.8311 32.9937 11.4791 33.1832 11.2896 33.5081C11.1001 33.8329 11.1001 34.2391 11.2896 34.5639C11.4791 34.8888 11.8311 35.0784 12.2101 35.0784C12.7787 35.0784 13.266 34.6181 13.266 34.0225C13.2389 33.481 12.7787 33.0207 12.2101 32.9937Z" fill="#EC6519"/>
<path d="M8.44681 30.584C7.98655 30.584 7.55337 30.8276 7.3097 31.2338C7.06604 31.6399 7.06604 32.1272 7.3097 32.5333C7.55337 32.9394 7.95948 33.1831 8.44681 33.1831C9.15074 33.1831 9.74637 32.6145 9.74637 31.8835C9.74637 31.1796 9.17781 30.584 8.44681 30.584Z" fill="#EC6519"/>
<path d="M5.11673 26.9834C4.27744 26.9834 3.60059 27.6602 3.60059 28.4995C3.60059 29.3388 4.27744 30.0157 5.11673 30.0157C5.95603 30.0157 6.63288 29.3388 6.63288 28.4995C6.60581 27.6602 5.95603 26.9834 5.11673 26.9834Z" fill="#EC6519"/>
<path d="M2.86963 22.3809C2.21985 22.3538 1.62422 22.7057 1.29933 23.2472C0.974442 23.7887 0.974442 24.4926 1.29933 25.0341C1.62422 25.5756 2.21985 25.9276 2.86963 25.9005C3.84429 25.8734 4.60237 25.0883 4.60237 24.1407C4.60237 23.1931 3.81722 22.4079 2.86963 22.3809Z" fill="#EC6519"/>
<path d="M2.05763 16.6411C0.920518 16.6411 0 17.5616 0 18.6987C0 19.8359 0.920518 20.7564 2.05763 20.7564C3.19474 20.7564 4.11526 19.8359 4.11526 18.6987C4.08818 17.5616 3.19474 16.6411 2.05763 16.6411Z" fill="#EC6519"/>
<path d="M2.86963 11.4429C2.21985 11.4429 1.62422 11.7678 1.29933 12.3092C0.974442 12.8507 0.974442 13.5547 1.29933 14.0961C1.62422 14.6376 2.21985 14.9896 2.86963 14.9625C3.84429 14.9354 4.60237 14.1503 4.60237 13.2027C4.60237 12.2551 3.81722 11.4699 2.86963 11.4429Z" fill="#EC6519"/>
<path d="M5.1166 7.35449C4.57512 7.35449 4.06071 7.62523 3.78997 8.11257C3.51923 8.57282 3.51923 9.16845 3.78997 9.62871C4.06071 10.089 4.57512 10.3868 5.1166 10.3868C5.92882 10.3597 6.60567 9.70994 6.60567 8.87064C6.5786 8.05842 5.92882 7.38157 5.1166 7.35449Z" fill="#EC6519"/>
<path d="M8.44702 4.15967C7.74309 4.15967 7.14746 4.72822 7.14746 5.45922C7.14746 6.16315 7.71602 6.75878 8.44702 6.75878C9.15094 6.75878 9.74657 6.19022 9.74657 5.45922C9.74657 4.7553 9.17802 4.15967 8.44702 4.15967Z" fill="#EC6519"/>
<path d="M12.2102 2.23779C11.6416 2.23779 11.1543 2.69805 11.1543 3.29368C11.1543 3.86224 11.6146 4.34957 12.2102 4.34957C12.7787 4.34957 13.2661 3.88931 13.2661 3.29368C13.239 2.72513 12.7787 2.23779 12.2102 2.23779Z" fill="#EC6519"/>
<path d="M15.8922 1.2627C15.3778 1.2627 14.9717 1.66881 14.9717 2.18321C14.9717 2.69762 15.3778 3.10373 15.8922 3.10373C16.3795 3.10373 16.7856 2.69762 16.7856 2.21029C16.7586 1.66881 16.3795 1.2627 15.8922 1.2627Z" fill="#EC6519"/>
<path d="M19.331 0.992188C18.8979 0.992188 18.5459 1.34415 18.5459 1.77734C18.5459 2.21052 18.8979 2.56248 19.331 2.56248C19.7642 2.56248 20.1162 2.21052 20.1162 1.77734C20.1162 1.34415 19.7642 0.992188 19.331 0.992188Z" fill="#EC6519"/>
<path d="M22.7968 1.2627C22.3094 1.2627 21.9033 1.66881 21.9033 2.15614C21.9033 2.64347 22.3094 3.04958 22.7968 3.04958C23.2841 3.04958 23.6902 2.64347 23.6902 2.15614C23.7173 1.66881 23.3112 1.2627 22.7968 1.2627Z" fill="#EC6519"/>
<path d="M26.4787 2.23779C26.0996 2.23779 25.7477 2.42731 25.5582 2.7522C25.3686 3.07709 25.3686 3.4832 25.5582 3.80809C25.7477 4.13298 26.0996 4.3225 26.4787 4.3225C27.0472 4.3225 27.5346 3.86224 27.5346 3.26661C27.5346 2.67098 27.0743 2.23779 26.4787 2.23779Z" fill="#EC6519"/>
<path d="M30.2419 4.18701C29.538 4.18701 28.9424 4.75557 28.9424 5.48657C28.9424 6.19049 29.5109 6.78612 30.2419 6.78612C30.9459 6.78612 31.5415 6.21757 31.5415 5.48657C31.5415 4.75557 30.9459 4.18701 30.2419 4.18701Z" fill="#EC6519"/>
<path d="M33.5718 7.35449C32.7325 7.35449 32.0557 8.03134 32.0557 8.87064C32.0557 9.70994 32.7325 10.3868 33.5718 10.3868C34.4111 10.3868 35.088 9.70994 35.088 8.87064C35.088 8.03134 34.4111 7.35449 33.5718 7.35449Z" fill="#EC6519"/>
<path d="M35.8188 11.4429C35.1691 11.4429 34.5734 11.7678 34.2485 12.3092C33.9237 12.8507 33.9237 13.5547 34.2485 14.0961C34.5734 14.6376 35.1691 14.9896 35.8188 14.9625C36.7935 14.9354 37.5516 14.1503 37.5516 13.2027C37.5516 12.228 36.7935 11.4429 35.8188 11.4429Z" fill="#EC6519"/>
<path d="M27.6971 21.3789C27.3992 21.3789 27.1285 21.5143 26.9931 21.7579C26.8578 22.0016 26.8578 22.3265 26.9931 22.5702C27.1285 22.8138 27.3992 22.9763 27.6971 22.9492C28.1302 22.9221 28.4551 22.5702 28.4551 22.1641C28.4822 21.7579 28.1302 21.406 27.6971 21.3789Z" fill="#EC6519"/>
<path d="M25.7205 24.3301C25.4227 24.3301 25.1519 24.4654 25.0166 24.7091C24.8812 24.9528 24.8812 25.2777 25.0166 25.5213C25.1519 25.765 25.4498 25.9275 25.7205 25.9004C26.1537 25.8733 26.4786 25.5213 26.4786 25.1152C26.4786 24.7091 26.1537 24.3572 25.7205 24.3301Z" fill="#EC6519"/>
<path d="M22.7696 26.2251C22.4717 26.2251 22.1739 26.3875 22.0115 26.6583C21.849 26.929 21.849 27.2539 22.0115 27.5246C22.1739 27.7954 22.4447 27.9578 22.7696 27.9578C23.2569 27.9578 23.6359 27.5788 23.6359 27.0915C23.6359 26.6041 23.2569 26.2251 22.7696 26.2251Z" fill="#EC6519"/>
<path d="M19.3038 26.7397C18.6541 26.7397 18.1396 27.2542 18.1396 27.9039C18.1396 28.5537 18.6541 29.0681 19.3038 29.0681C19.9536 29.0681 20.468 28.5537 20.468 27.9039C20.4409 27.2542 19.9265 26.7397 19.3038 26.7397Z" fill="#EC6519"/>
<path d="M15.811 26.0356C15.08 26.0356 14.4844 26.6313 14.4844 27.3623C14.4844 28.0933 15.08 28.6889 15.811 28.6889C16.542 28.6889 17.1376 28.0933 17.1376 27.3623C17.1376 26.6313 16.542 26.0356 15.811 26.0356Z" fill="#EC6519"/>
<path d="M12.671 23.8154C11.8588 23.8154 11.209 24.4652 11.209 25.2774C11.209 26.0897 11.8588 26.7394 12.671 26.7394C13.4832 26.7394 14.133 26.0897 14.133 25.2774C14.133 24.4652 13.4832 23.8154 12.671 23.8154Z" fill="#EC6519"/>
<path d="M10.5855 20.8374C9.90867 20.8374 9.36719 21.3789 9.36719 22.0557C9.36719 22.7326 9.90867 23.2741 10.5855 23.2741C11.2624 23.2741 11.8039 22.7326 11.8039 22.0557C11.8309 21.406 11.2624 20.8374 10.5855 20.8374Z" fill="#EC6519"/>
<path d="M10.099 17.5884C9.58455 17.5884 9.15137 18.0216 9.15137 18.536C9.15137 19.0504 9.58455 19.4836 10.099 19.4836C10.6134 19.4836 11.0466 19.0504 11.0466 18.536C11.0466 17.9945 10.6404 17.5884 10.099 17.5884Z" fill="#EC6519"/>
<path d="M10.9375 14.394C10.5043 14.394 10.1523 14.746 10.1523 15.1792C10.1523 15.6124 10.5043 15.9643 10.9375 15.9643C11.3707 15.9643 11.7226 15.6124 11.7226 15.1792C11.7497 14.746 11.3707 14.394 10.9375 14.394Z" fill="#EC6519"/>
<path d="M12.9412 11.4697C12.6434 11.4697 12.3726 11.6051 12.2373 11.8488C12.1019 12.0924 12.1019 12.4173 12.2373 12.661C12.3726 12.9047 12.6705 13.0671 12.9412 13.04C13.3744 13.04 13.7263 12.6881 13.7263 12.2549C13.6993 11.8217 13.3473 11.4697 12.9412 11.4697Z" fill="#EC6519"/>
<path d="M15.8654 9.41211C15.3781 9.41211 14.999 9.79115 14.999 10.2785C14.999 10.7658 15.3781 11.1448 15.8654 11.1448C16.3527 11.1448 16.7318 10.7658 16.7318 10.2785C16.7318 9.81822 16.3527 9.41211 15.8654 9.41211Z" fill="#EC6519"/>
<path d="M20.5159 9.49679C20.5406 8.85428 20.0398 8.31341 19.3973 8.28874C18.7547 8.26406 18.2139 8.76492 18.1892 9.40743C18.1645 10.0499 18.6654 10.5908 19.3079 10.6155C19.9504 10.6402 20.4913 10.1393 20.5159 9.49679Z" fill="#EC6519"/>
<path d="M22.8237 8.68115C22.0927 8.68115 21.4971 9.27678 21.4971 10.0078C21.4971 10.7388 22.0927 11.3344 22.8237 11.3344C23.5547 11.3344 24.1503 10.7388 24.1503 10.0078C24.1503 9.27678 23.5547 8.68115 22.8237 8.68115Z" fill="#EC6519"/>
<path d="M25.964 10.6304C25.1517 10.6304 24.502 11.2801 24.502 12.0924C24.502 12.9046 25.1517 13.5544 25.964 13.5544C26.7762 13.5544 27.426 12.9046 27.426 12.0924C27.426 11.2801 26.7762 10.6304 25.964 10.6304Z" fill="#EC6519"/>
<path d="M28.0484 14.0688C27.3716 14.0688 26.8301 14.6103 26.8301 15.2872C26.8301 15.964 27.3716 16.5055 28.0484 16.5055C28.7253 16.5055 29.2667 15.964 29.2667 15.2872C29.2667 14.6103 28.7253 14.0688 28.0484 14.0688Z" fill="#EC6519"/>
<path d="M24.854 20.9185C25.2578 20.9185 25.585 20.5913 25.585 20.1875C25.585 19.7838 25.2578 19.4565 24.854 19.4565C24.4503 19.4565 24.123 19.7838 24.123 20.1875C24.123 20.5913 24.4503 20.9185 24.854 20.9185Z" fill="#EC6519"/>
<path d="M23.4189 21.731C22.8233 21.731 22.3359 22.2183 22.3359 22.8139C22.3359 23.4095 22.8233 23.8969 23.4189 23.8969C24.0145 23.8969 24.5019 23.4095 24.5019 22.8139C24.5289 22.2183 24.0416 21.731 23.4189 21.731Z" fill="#EC6519"/>
<path d="M20.6303 23.1929C20.0076 23.1929 19.4932 23.7073 19.4932 24.33C19.4932 24.9527 20.0076 25.4671 20.6303 25.4671C21.253 25.4671 21.7674 24.9527 21.7674 24.33C21.7674 23.7073 21.253 23.1929 20.6303 23.1929Z" fill="#EC6519"/>
<path d="M17.3278 23.1118C16.9759 23.1118 16.6239 23.3013 16.4615 23.6262C16.272 23.9511 16.272 24.3302 16.4615 24.628C16.651 24.9529 16.9759 25.1424 17.3278 25.1424C17.8964 25.1424 18.3296 24.6821 18.3296 24.1406C18.3567 23.5721 17.8964 23.1118 17.3278 23.1118Z" fill="#EC6519"/>
<path d="M14.8912 21.46C14.485 21.46 14.1602 21.7849 14.1602 22.191C14.1602 22.5971 14.485 22.922 14.8912 22.922C15.2973 22.922 15.6222 22.5971 15.6222 22.191C15.6492 21.8119 15.2973 21.46 14.8912 21.46Z" fill="#EC6519"/>
<path d="M13.9165 19.3213C13.6187 19.3213 13.375 19.565 13.375 19.8628C13.375 20.1606 13.6187 20.4043 13.9165 20.4043C14.2143 20.4043 14.458 20.1606 14.458 19.8628C14.458 19.565 14.2143 19.3213 13.9165 19.3213Z" fill="#EC6519"/>
<path d="M13.8619 16.5327C13.4557 16.5327 13.1309 16.8576 13.1309 17.2637C13.1309 17.6698 13.4557 17.9947 13.8619 17.9947C14.268 17.9947 14.5929 17.6698 14.5929 17.2637C14.5929 16.8576 14.268 16.5327 13.8619 16.5327Z" fill="#EC6519"/>
<path d="M15.2968 13.5273C14.7012 13.5273 14.2139 14.0147 14.2139 14.6103C14.2139 15.2059 14.7012 15.6933 15.2968 15.6933C15.8925 15.6933 16.3798 15.2059 16.3798 14.6103C16.3798 14.0147 15.8925 13.5273 15.2968 13.5273Z" fill="#EC6519"/>
<path d="M18.0854 11.957C17.4627 11.957 16.9482 12.4714 16.9482 13.0941C16.9482 13.7168 17.4627 14.2313 18.0854 14.2313C18.7081 14.2313 19.2225 13.7168 19.2225 13.0941C19.2225 12.4714 18.7081 11.957 18.0854 11.957Z" fill="#EC6519"/>
<path d="M21.3881 12.3091C21.0091 12.3091 20.6842 12.4986 20.4947 12.7964C20.3052 13.1213 20.3052 13.5003 20.4947 13.8252C20.6842 14.1501 21.0362 14.3396 21.3881 14.3126C21.9296 14.2855 22.3628 13.8523 22.3628 13.3108C22.3628 12.7693 21.9296 12.3362 21.3881 12.3091Z" fill="#EC6519"/>
<path d="M23.7984 14.4751C23.3923 14.4751 23.0674 14.8 23.0674 15.2061C23.0674 15.6122 23.3923 15.9371 23.7984 15.9371C24.2045 15.9371 24.5294 15.6122 24.5294 15.2061C24.5565 14.8 24.2316 14.4751 23.7984 14.4751Z" fill="#EC6519"/>
<path d="M24.8266 17.0469C24.5288 17.0469 24.2852 17.2905 24.2852 17.5884C24.2852 17.8862 24.5288 18.1298 24.8266 18.1298C25.1245 18.1298 25.3681 17.8862 25.3681 17.5884C25.3681 17.2905 25.1245 17.0469 24.8266 17.0469Z" fill="#EC6519"/>
<path d="M28.5365 17.8862C28.0221 17.8862 27.5889 18.3194 27.5889 18.8338C27.5889 19.3482 28.0221 19.7814 28.5365 19.7814C29.0509 19.7814 29.4841 19.3482 29.4841 18.8338C29.4841 18.3194 29.0509 17.8862 28.5365 17.8862Z" fill="#EC6519"/>
<path d="M32.4617 19.0508C31.8931 19.0508 31.46 19.511 31.46 20.0525C31.46 20.6211 31.9202 21.0543 32.4617 21.0543C33.0303 21.0543 33.4634 20.594 33.4634 20.0525C33.4634 19.511 33.0303 19.0508 32.4617 19.0508Z" fill="#EC6519"/>
<path d="M31.4603 22.5972C30.9459 22.5972 30.5127 23.0304 30.5127 23.5448C30.5127 24.0592 30.9459 24.4924 31.4603 24.4924C31.9747 24.4924 32.4079 24.0592 32.4079 23.5448C32.4079 23.0304 32.0018 22.5972 31.4603 22.5972Z" fill="#EC6519"/>
<path d="M29.7546 25.5757C29.3214 25.5757 28.9424 25.9276 28.9424 26.3879C28.9424 26.8211 29.2943 27.2001 29.7546 27.2001C30.1878 27.2001 30.5397 26.8211 30.5397 26.3879C30.5397 25.9547 30.1878 25.6028 29.7546 25.5757Z" fill="#EC6519"/>
<path d="M27.6969 27.7954C27.4532 27.7954 27.2096 27.9308 27.0742 28.1474C26.9388 28.364 26.9388 28.6347 27.0742 28.8513C27.2096 29.0679 27.4261 29.2033 27.6969 29.2033C28.0759 29.2033 28.4008 28.9054 28.4008 28.4993C28.4008 28.1203 28.0759 27.7954 27.6969 27.7954Z" fill="#EC6519"/>
<path d="M25.5312 29.4199C25.2063 29.4199 24.9355 29.6907 24.9355 30.0155C24.9355 30.3404 25.2063 30.6112 25.5312 30.6112C25.8561 30.6112 26.1268 30.3404 26.1268 30.0155C26.1268 29.6907 25.8561 29.4199 25.5312 29.4199Z" fill="#EC6519"/>
<path d="M23.0672 30.3403C22.6882 30.3403 22.3633 30.6381 22.3633 31.0443C22.3633 31.4233 22.6611 31.7482 23.0672 31.7482C23.4462 31.7482 23.7711 31.4504 23.7711 31.0443C23.7441 30.6381 23.4462 30.3403 23.0672 30.3403Z" fill="#EC6519"/>
<path d="M20.1706 30.8008C19.7374 30.8008 19.3584 31.1527 19.3584 31.613C19.3584 32.0462 19.7104 32.4252 20.1706 32.4252C20.6038 32.4252 20.9828 32.0733 20.9828 31.613C20.9558 31.1527 20.6038 30.8008 20.1706 30.8008Z" fill="#EC6519"/>
<path d="M16.8667 30.4761C16.2981 30.4761 15.8379 30.9363 15.8379 31.5049C15.8379 32.0734 16.2981 32.5337 16.8667 32.5337C17.4353 32.5337 17.8955 32.0734 17.8955 31.5049C17.8955 30.9363 17.4353 30.4761 16.8667 30.4761Z" fill="#EC6519"/>
<path d="M13.3746 29.2305C12.6977 29.2305 12.1562 29.772 12.1562 30.4488C12.1562 31.1257 12.6977 31.6671 13.3746 31.6671C14.0514 31.6671 14.5929 31.1257 14.5929 30.4488C14.62 29.772 14.0514 29.2305 13.3746 29.2305Z" fill="#EC6519"/>
<path d="M10.3154 26.9019C9.80097 26.9019 9.31364 27.1726 9.0429 27.6058C8.77216 28.066 8.77216 28.6075 9.0429 29.0678C9.31364 29.528 9.80097 29.7988 10.3154 29.7717C11.1005 29.7446 11.7232 29.1219 11.7232 28.3368C11.7232 27.5787 11.1005 26.9289 10.3154 26.9019Z" fill="#EC6519"/>
<path d="M7.74315 23.4365C6.87678 23.4365 6.17285 24.1404 6.17285 25.0068C6.17285 25.8732 6.87678 26.5771 7.74315 26.5771C8.60952 26.5771 9.31344 25.8732 9.31344 25.0068C9.31344 24.1134 8.60952 23.4365 7.74315 23.4365Z" fill="#EC6519"/>
<path d="M7.53479 21.1291C7.58354 20.443 7.06688 19.8473 6.38078 19.7985C5.69468 19.7498 5.09896 20.2664 5.0502 20.9525C5.00144 21.6386 5.51811 22.2344 6.20421 22.2831C6.89031 22.3319 7.48603 21.8152 7.53479 21.1291Z" fill="#EC6519"/>
<path d="M7.21505 17.3518C7.24565 16.7994 6.82263 16.3267 6.27021 16.2961C5.71779 16.2655 5.24517 16.6886 5.21458 17.241C5.18398 17.7934 5.607 18.266 6.15942 18.2966C6.71183 18.3272 7.18446 17.9042 7.21505 17.3518Z" fill="#EC6519"/>
<path d="M7.22884 12.8506C6.71444 12.8506 6.28125 13.2838 6.28125 13.7982C6.28125 14.3126 6.71444 14.7458 7.22884 14.7458C7.74325 14.7458 8.17643 14.3126 8.17643 13.7982C8.17643 13.2838 7.74325 12.8506 7.22884 12.8506Z" fill="#EC6519"/>
<path d="M8.93436 10.1704C8.63655 10.1704 8.3658 10.3058 8.23043 10.5765C8.09506 10.8202 8.09506 11.1451 8.23043 11.3887C8.3658 11.6324 8.66362 11.7949 8.93436 11.7949C9.36754 11.7949 9.71951 11.4158 9.71951 10.9826C9.71951 10.5224 9.36754 10.1704 8.93436 10.1704Z" fill="#EC6519"/>
<path d="M10.992 8.16699C10.613 8.16699 10.2881 8.46481 10.2881 8.87092C10.2881 9.24995 10.5859 9.57484 10.992 9.57484C11.3981 9.57484 11.6959 9.27703 11.6959 8.87092C11.6959 8.49188 11.371 8.16699 10.992 8.16699Z" fill="#EC6519"/>
<path d="M13.1581 6.75879C12.8332 6.75879 12.5625 7.02953 12.5625 7.35442C12.5625 7.67931 12.8332 7.95005 13.1581 7.95005C13.483 7.95005 13.7538 7.67931 13.7538 7.35442C13.7538 7.00246 13.483 6.75879 13.1581 6.75879Z" fill="#EC6519"/>
<path d="M15.6219 5.64893C15.2429 5.64893 14.918 5.94674 14.918 6.35285C14.918 6.73189 15.2158 7.05678 15.6219 7.05678C16.0009 7.05678 16.3258 6.75896 16.3258 6.35285C16.3258 5.94674 16.0009 5.64893 15.6219 5.64893Z" fill="#EC6519"/>
<path d="M18.5183 4.94482C18.2205 4.94482 17.9498 5.08019 17.8144 5.35094C17.679 5.5946 17.679 5.91949 17.8144 6.16316C17.9498 6.40682 18.2476 6.56927 18.5183 6.56927C18.9515 6.56927 19.3035 6.19023 19.3035 5.75705C19.3035 5.32386 18.9515 4.9719 18.5183 4.94482Z" fill="#EC6519"/>
<path d="M21.8214 4.80957C21.4424 4.80957 21.0904 4.99909 20.9009 5.32398C20.7114 5.64887 20.7114 6.05498 20.9009 6.37987C21.0904 6.70475 21.4424 6.89427 21.8214 6.89427C22.39 6.89427 22.8503 6.40694 22.8503 5.83838C22.8503 5.26983 22.39 4.80957 21.8214 4.80957Z" fill="#EC6519"/>
<path d="M25.2063 5.59473C24.5295 5.59473 23.9609 6.13621 23.9609 6.84013C23.9609 7.51699 24.5024 8.08554 25.2063 8.08554C25.8832 8.08554 26.4517 7.54406 26.4517 6.84013C26.4517 6.16328 25.8832 5.59473 25.2063 5.59473Z" fill="#EC6519"/>
<path d="M28.4007 7.54395C27.5885 7.54395 26.9658 8.19372 26.9658 8.97887C26.9658 9.76402 27.6156 10.4138 28.4007 10.4138C29.213 10.4138 29.8357 9.76402 29.8357 8.97887C29.8357 8.19372 29.1859 7.54395 28.4007 7.54395Z" fill="#EC6519"/>
<path d="M30.9459 10.793C30.3774 10.793 29.863 11.0908 29.5652 11.5781C29.2673 12.0654 29.2673 12.6611 29.5652 13.1484C29.863 13.6357 30.3774 13.9336 30.9459 13.9336C31.8123 13.9065 32.4892 13.2296 32.4892 12.3633C32.4621 11.524 31.7852 10.82 30.9459 10.793Z" fill="#EC6519"/>
<path d="M32.3802 15.0977C31.947 15.0977 31.5138 15.3142 31.2972 15.6933C31.0806 16.0723 31.0806 16.5597 31.2972 16.9387C31.5138 17.3177 31.947 17.5614 32.3802 17.5343C33.057 17.5072 33.5714 16.9658 33.5714 16.316C33.5714 15.6662 33.057 15.1247 32.3802 15.0977Z" fill="#EC6519"/>
<path d="M38.6885 18.6714C38.6885 19.8085 37.768 20.729 36.6309 20.729C35.4938 20.729 34.5732 19.8085 34.5732 18.6714C34.5732 17.5343 35.4938 16.6138 36.6309 16.6138C37.768 16.6408 38.6885 17.5614 38.6885 18.6714Z" fill="#EC6519"/>
<path d="M140 21.8391C140 19.8898 138.89 18.861 137.157 18.157C135.803 17.6156 134.612 17.1553 133.691 16.7763C132.798 16.4243 132.013 15.8016 132.013 15.1247C132.013 14.2042 133.15 13.6627 134.666 13.6627C136.453 13.6627 137.861 13.9064 139.187 14.0418H139.241C139.458 14.0418 139.593 13.8793 139.593 13.6627V12.1466C139.593 11.9571 139.431 11.7946 139.214 11.7676C138.51 11.6051 136.724 11.2261 134.774 11.2261C130.984 11.2261 129.17 12.8505 129.17 15.1247C129.17 16.5597 129.793 17.9675 131.58 18.6985C133.366 19.4295 137.021 20.2959 137.021 21.812C137.021 23.0033 136.48 23.6531 134.639 23.6531C132.744 23.6531 130.821 23.3823 130.009 23.274H129.955C129.738 23.274 129.576 23.4365 129.576 23.6531V25.1151C129.576 25.3317 129.766 25.4941 129.955 25.5212C130.93 25.7378 132.771 26.0627 134.585 26.0627C138.727 26.1168 140 23.8967 140 21.8391Z" fill="#404040"/>
<path d="M99.9301 13.7712H95.842V25.5213C95.842 25.7379 95.6524 25.9274 95.4358 25.9274H93.4053C93.1887 25.9274 92.9992 25.7379 92.9992 25.5213V13.7712H88.911C88.6944 13.7712 88.5049 13.6358 88.5049 13.3922V11.7677C88.5049 11.5511 88.6944 11.3887 88.911 11.3887H99.9301C100.147 11.3887 100.336 11.5511 100.336 11.7677V13.3922C100.336 13.6358 100.147 13.7712 99.9301 13.7712Z" fill="#404040"/>
<path d="M86.7179 20.3229V11.7946C86.7179 11.578 86.5284 11.4155 86.3118 11.4155H84.2813C84.0647 11.4155 83.8752 11.578 83.8752 11.7946V20.2958C83.8752 22.6242 82.7922 23.7342 80.5992 23.7342C78.4062 23.7342 77.3232 22.6242 77.3232 20.2958V11.7946C77.3232 11.578 77.1337 11.4155 76.9171 11.4155H74.8866C74.67 11.4155 74.4805 11.578 74.4805 11.7946V20.2958C74.4805 24.6547 77.3232 26.0897 80.5992 26.0897C83.8752 26.0897 86.7179 24.6818 86.7179 20.3229Z" fill="#404040"/>
<path d="M105.047 19.6193H111.599C111.816 19.6193 112.005 19.4298 112.005 19.2132V17.7241C112.005 17.5075 111.816 17.318 111.599 17.318H105.047V15.4499C105.047 13.7442 105.101 13.6901 106.672 13.6901H111.843C112.059 13.6901 112.249 13.5006 112.249 13.284V11.9844C112.249 11.6866 112.141 11.6054 111.843 11.5512C111.193 11.4429 109.866 11.2534 107.43 11.2534C104.045 11.2534 102.231 11.2263 102.231 15.4499V21.9206C102.231 26.1442 104.045 26.1171 107.43 26.1171C109.866 26.1171 111.193 25.9276 111.843 25.8193C112.141 25.7922 112.249 25.6839 112.249 25.3861V24.0865C112.249 23.8699 112.059 23.6804 111.843 23.6804H106.672C105.128 23.6804 105.047 23.6263 105.047 21.9206V19.6193Z" fill="#404040"/>
<path d="M64.6263 19.6193H71.1782C71.3948 19.6193 71.5843 19.4298 71.5843 19.2132V17.7241C71.5843 17.5075 71.3948 17.318 71.1782 17.318H64.6263V15.4499C64.6263 13.7442 64.6804 13.6901 66.2507 13.6901H71.4218C71.6384 13.6901 71.828 13.5006 71.828 13.284V11.9844C71.828 11.6866 71.7197 11.6054 71.4218 11.5512C70.7721 11.4429 69.4454 11.2534 67.0088 11.2534C63.6245 11.2534 61.8105 11.2263 61.8105 15.4499V21.9206C61.8105 26.1442 63.6245 26.1171 67.0088 26.1171C69.4454 26.1171 70.7721 25.9276 71.4218 25.8193C71.7197 25.7922 71.828 25.6839 71.828 25.3861V24.0865C71.828 23.8699 71.6384 23.6804 71.4218 23.6804H66.2507C64.7075 23.6804 64.6263 23.6263 64.6263 21.9206V19.6193V19.6193Z" fill="#404040"/>
<path d="M127.465 25.5215L124.27 20.0525C125.948 19.4027 127.031 18.2115 127.031 16.0455V15.8831C127.031 12.3905 124.134 11.2534 120.967 11.2534C119.478 11.2534 117.176 11.3617 116.12 11.5242C115.714 11.5783 115.471 11.7408 115.471 12.1469V25.5485C115.471 25.7651 115.66 25.9546 115.877 25.9546H117.934C118.151 25.9546 118.313 25.7651 118.313 25.5485V20.4857C118.774 20.5127 120.425 20.5669 120.967 20.5669H121.427L124.378 25.5215C124.486 25.711 124.568 25.9276 124.784 25.9276H127.275C127.437 25.9276 127.519 25.8193 127.519 25.6839C127.519 25.6297 127.492 25.5756 127.465 25.5215ZM124.189 16.0455C124.189 17.8324 123.051 18.2385 120.94 18.2385C120.588 18.2385 118.611 18.1844 118.286 18.1844V13.7713C118.638 13.7172 120.506 13.6901 120.94 13.6901C122.997 13.6901 124.189 14.3399 124.189 15.8831V16.0455Z" fill="#404040"/>
<path d="M59.5902 25.5215L56.3684 20.0525C58.047 19.4027 59.13 18.2115 59.13 16.0455V15.8831C59.13 12.3905 56.233 11.2534 53.0654 11.2534C51.5763 11.2534 49.275 11.3617 48.2191 11.5242C47.813 11.5783 47.5693 11.7408 47.5693 12.1469V25.5485C47.5693 25.7651 47.7589 25.9546 47.9754 25.9546H50.0331C50.2497 25.9546 50.4121 25.7651 50.4121 25.5485V20.4857C50.8724 20.5127 52.5239 20.5669 53.0654 20.5669H53.5256L56.4767 25.5215C56.585 25.711 56.6662 25.9276 56.8828 25.9276H59.3736C59.5361 25.9276 59.6173 25.8193 59.6173 25.6839C59.6173 25.6297 59.6173 25.5756 59.5902 25.5215ZM56.3143 16.0455C56.3143 17.8324 55.1772 18.2385 53.0924 18.2385C52.7405 18.2385 50.7641 18.1844 50.4392 18.1844V13.7713C50.7912 13.7172 52.6593 13.6901 53.0924 13.6901C55.1501 13.6901 56.3143 14.3399 56.3143 15.8831V16.0455Z" fill="#404040"/>
</g>
<defs>
<clipPath id="clip0_629_945">
<rect width="140" height="35.3587" fill="white" transform="translate(0 0.992188)"/>
</clipPath>
</defs>
</svg>
