<svg width="101" height="30" viewBox="0 0 101 30" fill="none" xmlns="http://www.w3.org/2000/svg">
<g clip-path="url(#clip0_627_880)">
<path d="M54.6817 19.2101C54.6817 22.3072 50.8276 22.1234 50.8276 22.1234H46.9736V16.5271H50.8276C54.7939 16.5005 54.6817 19.2101 54.6817 19.2101ZM46.9736 7.99234H49.9104C52.96 8.15344 52.8449 10.4239 52.8449 10.4239C52.8449 13.2455 49.4728 13.2915 49.4728 13.2915H46.9736V7.99234ZM53.9688 14.392C53.9688 14.392 56.6068 13.2679 56.5833 10.2863C56.5833 10.2863 56.9845 5.39994 50.5104 4.80394H43.3266V25.2888H51.561C51.561 25.2888 58.4412 25.3093 58.4412 19.5089C58.4411 19.5089 58.6038 15.5616 53.9688 14.392ZM35.3773 0.790039H65.6226V29.2913H35.3773V0.790039ZM19.8041 19.2101C19.8041 22.3072 15.95 22.1234 15.95 22.1234H12.0957V16.5271H15.95C19.9166 16.5005 19.8041 19.2101 19.8041 19.2101ZM12.0957 7.99234H15.0331C18.0828 8.15344 17.9674 10.4239 17.9674 10.4239C17.9674 13.2455 14.5955 13.2915 14.5955 13.2915H12.0957V7.99234V7.99234ZM19.0915 14.392C19.0915 14.392 21.7299 13.2679 21.7062 10.2863C21.7062 10.2863 22.1071 5.39994 15.633 4.80394H8.4489V25.2888H16.6838C16.6838 25.2888 23.5639 25.3093 23.5639 19.5089C23.5639 19.5089 23.726 15.5616 19.0915 14.392ZM0.5 0.790039H30.7453V29.2913H0.5V0.790039ZM94.3301 6.27254V10.0571C94.3301 10.0571 90.6359 7.78694 86.5537 7.74124C86.5537 7.74124 78.9376 7.59174 78.5943 15.0417C78.5943 15.0417 78.3192 21.893 86.4619 22.2834C86.4619 22.2834 89.8784 22.6949 94.5133 19.7393V23.6588C94.5133 23.6588 88.296 27.3527 81.0936 24.5076C81.0936 24.5076 75.0391 22.2967 74.8085 15.0417C74.8085 15.0417 74.5567 7.57984 82.6315 5.10284C82.6315 5.10284 84.7878 4.27734 88.6628 4.64424C88.6629 4.64414 90.9789 4.87324 94.3301 6.27254ZM70.2547 29.2913H100.5V0.790039H70.2547V29.2913Z" fill="black"/>
</g>
<defs>
<clipPath id="clip0_627_880">
<rect width="100" height="28.5" fill="white" transform="translate(0.5 0.790039)"/>
</clipPath>
</defs>
</svg>
