<svg width="101" height="31" viewBox="0 0 101 31" fill="none" xmlns="http://www.w3.org/2000/svg">
<g clip-path="url(#clip0_701_879)">
<path d="M48.2412 0.319336C48.2412 0.319336 47.1237 0.342735 46.4761 0.331789C46.4492 0.603574 46.1371 3.06642 45.8687 5.04756C45.5599 6.88078 43.1136 20.4798 42.2848 24.5506C42.0667 25.7798 41.3922 29.2523 41.3284 29.5992C40.5499 29.6922 39.6304 29.7781 39.0297 29.8013C38.9492 29.8039 38.815 29.8301 38.7512 29.8301V30.5351C38.825 30.5321 39.2143 30.562 39.4895 30.5502C40.1506 30.5291 42.0264 30.4402 42.3821 30.4402C43.7311 30.4402 44.6304 30.5294 45.8787 30.5543C45.8955 30.5543 46.2378 30.5529 46.3888 30.5338V29.8214C46.2848 29.8214 46.1472 29.818 46.0667 29.818C45.7143 29.8291 44.4157 29.7294 43.7579 29.6398C43.8351 29.1741 44.9828 22.1311 45.5331 19.3147C46.5801 14.1016 47.3049 10.407 47.3049 10.407L47.4995 10.8657L55.7714 30.5811L57.2814 30.5888C57.2814 30.5888 58.1438 28.4539 59.1673 26.0593C59.1942 26.0026 59.268 25.8311 59.372 25.5861C60.4459 23.0996 65.768 10.4798 65.768 10.4798C65.768 10.4798 65.8183 10.707 65.9022 11.1133C66.4089 13.5868 68.1237 22.5009 68.4895 24.6516C68.6606 25.758 68.8217 26.8801 68.9157 27.5375C69.0532 28.4684 69.1438 29.3794 69.1438 29.6412C68.9761 29.6489 67.2915 29.8013 66.6539 29.8288C66.5633 29.8257 66.3922 29.8341 66.3821 29.8358V30.5529C66.6103 30.5529 66.8318 30.563 67.0532 30.558C68.3552 30.5331 69.6069 30.4311 70.9089 30.4318C72.372 30.4331 74.7445 30.561 76.2646 30.5707C76.4358 30.5707 76.7411 30.5556 76.7411 30.5556V29.8311C76.6539 29.8304 76.2714 29.8117 76.1304 29.8006C75.4492 29.7472 74.3016 29.6408 74.0096 29.6214C74.0096 29.6214 73.8217 28.5801 73.5734 27.3774C72.5801 22.5664 69.7512 7.94253 69.3183 4.3442C69.1707 3.10743 68.7512 0.330447 68.7512 0.330447L67.0499 0.329916C67.0499 0.329916 66.1807 2.82364 65.3888 5.09737C64.8485 6.65106 64.1136 8.56918 63.5532 10.04C60.7881 17.3071 57.6875 24.0789 57.6875 24.0789C57.6875 24.0789 51.0969 8.35341 50.7479 7.44401C50.3955 6.53428 48.2412 0.319514 48.2412 0.319514V0.319336ZM0.865321 0.32589L0.87975 1.988L0.851562 6.03565L1.29005 6.02324L1.33592 2.42324C1.33592 2.42314 3.74032 2.40243 4.05129 2.40284L8.53485 2.40478L11.4285 2.41921L11.4332 27.4551L11.4338 29.6175L11.3728 29.6259C10.9875 29.6558 9.50532 29.7464 8.90331 29.7682C8.76841 29.7726 8.68217 29.7759 8.6674 29.7742L8.67008 30.5068C8.77881 30.5122 9.07176 30.5192 9.11035 30.5179C10.5345 30.4994 12.4617 30.3756 13.8281 30.3769C15.2164 30.3776 17.1701 30.5125 18.3791 30.5266C18.4989 30.5273 18.6409 30.5155 18.756 30.5155V29.8286L18.606 29.8299C18.2208 29.8283 16.0902 29.691 15.8697 29.6622C15.8607 29.3263 15.8211 27.7048 15.8211 27.6689L15.8315 2.41653L18.0345 2.41069L23.7825 2.41461L25.701 2.44082C25.7137 2.5779 25.8107 4.40143 25.809 4.45109C25.8046 4.58364 25.8808 5.94203 25.8778 6.27626L26.3325 6.28163L26.2999 2.18767L26.3208 0.346125C24.6315 0.392098 20.3265 0.44995 13.6453 0.446427C7.91539 0.442903 2.39358 0.394849 0.865388 0.325823L0.865321 0.32589ZM27.6257 0.332443L27.6328 1.04949C27.8596 1.06181 29.1932 1.17979 29.5173 1.19563C29.7761 1.22731 30.1371 1.25973 30.3955 1.28476C30.3955 1.51432 30.3995 3.09845 30.4032 3.72365C30.4465 9.64949 30.4096 22.7461 30.3922 27.38C30.3868 28.72 30.3831 29.5834 30.3831 29.5834C30.2197 29.6324 29.8519 29.6508 29.4542 29.6777C29.1143 29.7008 27.8962 29.8032 27.6244 29.8089V30.526C27.7371 30.526 27.9438 30.5498 28.0616 30.5488C29.4405 30.5492 31.3576 30.378 32.77 30.379C34.1975 30.38 36.1036 30.5539 37.2277 30.5542L37.2244 30.5549C37.3217 30.5562 37.5532 30.5307 37.6505 30.531V29.8143H37.5532C37.5096 29.8049 36.0599 29.7438 35.7076 29.7072C35.523 29.6955 34.7244 29.6263 34.7143 29.5998C34.711 29.5857 34.7076 29.3713 34.7076 29.0139C34.711 28.6747 34.711 28.1106 34.711 27.4992C34.7143 22.825 34.7277 8.94278 34.7311 3.6364C34.7311 2.61087 34.7344 1.77761 34.7344 1.33063C35.0465 1.3109 36.3217 1.17758 36.7781 1.13731C36.7982 1.13533 37.4022 1.10056 37.6505 1.08553V0.338349C36.0901 0.337779 34.0254 0.459725 32.5026 0.458953C30.9099 0.45798 28.9479 0.333041 27.6257 0.332453V0.332443ZM99.8405 0.352769C99.8405 0.352769 99.676 0.353474 99.3707 0.354078C98.327 0.358574 95.6559 0.378172 92.5318 0.395353C90.6123 0.406494 89.1123 0.421896 87.1358 0.420923C85.7499 0.437165 83.8103 0.490588 82.6123 0.48844C80.6995 0.485319 79.1391 0.367433 78.2901 0.36391C77.8875 0.362131 77.6626 0.377299 77.5519 0.370453C77.5586 0.380621 77.5586 1.07831 77.5586 1.07831C77.6324 1.09119 77.7801 1.10763 77.9177 1.10451C78.3975 1.1368 79.2969 1.20945 79.7532 1.26968C79.8438 1.28629 79.9982 1.31176 80.4277 1.35948C80.4244 1.51824 80.4479 3.31475 80.4445 4.39411C80.4445 5.39411 80.4344 27.7062 80.4344 27.7062C80.4344 27.7424 80.3841 29.5005 80.3841 29.6424C79.6257 29.7723 78.1693 29.8522 77.6727 29.8542H77.525V30.5639C77.5955 30.5636 77.921 30.5763 78.1056 30.5763C78.9076 30.576 80.9747 30.4485 83.0854 30.4471C84.5653 30.4458 86.1928 30.5012 87.8405 30.5246C89.8707 30.5528 91.9244 30.5542 93.77 30.5803C96.8136 30.6233 99.2801 30.627 100.082 30.628C100.082 30.628 100.179 24.9827 100.179 24.5277L99.7398 24.5327C99.7398 25.0129 99.5619 26.8012 99.5552 26.8793C99.4982 27.5525 99.4378 28.2579 99.3908 28.6055C99.3908 28.6055 99.176 28.6226 99.072 28.6206C98.572 28.6112 96.9747 28.6693 96.9411 28.6693L89.817 28.6723L84.8136 28.5884L84.7801 27.2005L84.7767 16.4246C85.6693 16.3944 87.0317 16.3471 87.8606 16.3488C88.5653 16.3502 90.2264 16.3106 91.1559 16.3126C93.4143 16.3166 95.421 16.331 95.5821 16.3357C95.9546 16.3465 96.6458 16.3693 96.9076 16.3854C96.9176 16.4804 96.9479 16.6287 96.9512 16.6706C97.0854 17.4958 97.1593 18.0673 97.2499 18.8773C97.2633 18.9502 97.27 19.0206 97.2801 19.0871H97.7935C97.7935 19.0871 97.8069 18.7975 97.8002 18.6173C97.7901 17.982 97.7499 16.7149 97.7499 15.3106C97.7465 14.3371 97.8036 12.8488 97.8103 12.133C97.8136 11.9394 97.7901 11.8018 97.7901 11.7465L97.3203 11.7555C97.317 11.9102 97.2801 12.1384 97.2801 12.1384C97.2398 12.672 97.0888 13.3538 96.968 14.0733C96.9344 14.1629 96.9109 14.2881 96.9109 14.2881C96.8573 14.3062 95.3841 14.3847 95.2532 14.3837C95.2029 14.3834 93.0586 14.4434 93.0217 14.4434L84.7801 14.4126L84.7935 2.53002C84.7935 2.53005 85.8405 2.49307 86.1324 2.49465C87.3203 2.49485 89.2532 2.48404 91.223 2.4868C94.1056 2.49029 96.9042 2.50824 96.9109 2.51233C96.9277 2.52055 97.7801 2.5324 97.7969 2.54706C97.817 2.5631 98.8841 2.59502 99.1458 2.60344C99.1458 2.60344 99.166 2.6919 99.1794 2.80334C99.2969 4.05619 99.3942 5.54411 99.4378 6.07129L99.4411 6.28237L99.8807 6.28102C99.8807 5.50955 99.8405 3.14693 99.8338 1.64378C99.8304 1.16099 99.8405 0.767836 99.8405 0.544145V0.352769V0.352769Z" fill="#E90606"/>
</g>
<defs>
<clipPath id="clip0_701_879">
<rect width="100" height="30.9802" fill="white" transform="translate(0.5)"/>
</clipPath>
</defs>
</svg>
