<svg width="141" height="29" viewBox="0 0 141 29" fill="none" xmlns="http://www.w3.org/2000/svg">
<g clip-path="url(#clip0_627_882)">
<path d="M4.18521 3.93622H7.22782C10.0086 3.93622 11.2341 4.81494 11.2341 6.59991C11.2341 8.15109 10.0086 9.20433 7.54888 9.20433H4.18521V3.93622ZM0.5 21.4873H7.95721C11.8762 21.4873 15.7952 20.0873 15.7952 15.5808C15.7952 12.9171 13.9276 10.8722 11.3251 10.5763V10.5147C13.4545 9.87679 14.923 8.32608 14.923 5.98532C14.923 2.21098 11.7017 0.778809 8.5718 0.778809H0.5V21.4873ZM4.18521 12.3617H7.72341C10.7063 12.3617 12.1151 13.1233 12.1151 15.2896C12.1151 18.006 9.47665 18.3298 7.57642 18.3298H4.18521V12.3617Z" fill="#010101"/>
<path fill-rule="evenodd" clip-rule="evenodd" d="M21.7128 0.290039V21.4871H18.2129V0.290039H21.7128Z" fill="#010101"/>
<path d="M27.5712 14.468C27.5712 12.2742 29.1224 10.2578 31.697 10.2578C34.2715 10.2578 35.818 12.2747 35.818 14.468C35.818 16.6613 34.2715 18.6786 31.697 18.6786C29.1219 18.6786 27.5712 16.6617 27.5712 14.468ZM24.0605 14.468C24.0605 18.8849 27.4518 21.8361 31.697 21.8361C35.937 21.8361 39.3334 18.8854 39.3334 14.468C39.3334 10.0506 35.9375 7.0957 31.697 7.0957C27.4518 7.09524 24.0605 10.0511 24.0605 14.468Z" fill="#010101"/>
<path d="M44.4267 14.468C44.4267 12.2742 45.9779 10.2578 48.5524 10.2578C51.127 10.2578 52.6735 12.2747 52.6735 14.468C52.6735 16.6613 51.127 18.6786 48.5524 18.6786C45.9779 18.6786 44.4267 16.6617 44.4267 14.468ZM40.916 14.468C40.916 18.8849 44.3077 21.8361 48.5524 21.8361C52.7925 21.8361 56.1888 18.8854 56.1888 14.468C56.1888 10.0506 52.793 7.0957 48.5524 7.0957C44.3072 7.09524 40.916 10.0511 40.916 14.468Z" fill="#010101"/>
<path d="M58.3271 7.44652H61.6633V9.64262H61.7184C62.3334 8.32571 63.6779 7.09326 66.0182 7.09326C68.1844 7.09326 69.6805 7.93978 70.4099 9.69768C71.4333 7.91691 72.9247 7.09326 75.0265 7.09326C78.771 7.09326 80.0889 9.75928 80.0889 13.1234V21.4874H76.5782V13.5318C76.5782 11.7785 76.0551 10.2572 73.9761 10.2572C71.7828 10.2572 70.961 12.0697 70.961 13.8803V21.4869H67.455V13.123C67.455 11.3926 66.7527 10.2572 65.055 10.2572C62.7464 10.2572 61.8378 11.9484 61.8378 13.8229V21.4869H58.3271V7.44652Z" fill="#010101"/>
<path d="M94.5767 14.4681C94.5767 16.6642 93.0302 18.6787 90.451 18.6787C87.876 18.6787 86.3253 16.6642 86.3253 14.4681C86.3253 12.2743 87.876 10.2527 90.451 10.2527C93.0302 10.2527 94.5767 12.2743 94.5767 14.4681ZM82.9341 21.4871H86.2702V19.3825H86.3253C87.3528 21.0736 89.1934 21.8357 91.1571 21.8357C95.4802 21.8357 98.0869 18.6185 98.0869 14.4676C98.0869 10.3143 95.3061 7.09533 91.2998 7.09533C88.6698 7.09533 87.2614 8.32077 86.5315 9.23402H86.4443V0.290039H82.9336V21.4871H82.9341Z" fill="#010101"/>
<path d="M103.185 13.0638C103.447 11.0422 104.737 9.72766 106.811 9.72766C109.005 9.72766 110.349 11.0152 110.381 13.0638H103.185ZM113.892 15.6958V14.7321C113.892 9.84479 111.231 7.0957 107.311 7.0957C103.062 7.0957 99.6748 10.0511 99.6748 14.468C99.6748 18.8849 103.062 21.8361 107.311 21.8361C109.528 21.8361 111.611 21.0469 113.245 19.0319L110.73 17.1345C109.854 18.2111 108.711 19.0319 106.957 19.0319C104.998 19.0319 103.415 17.7724 103.185 15.6958H113.892Z" fill="#010101"/>
<path d="M116.178 7.44652H119.689V9.67015H119.749C120.51 8.06158 122.057 7.09326 123.901 7.09326C124.342 7.09326 124.75 7.18286 125.159 7.30186V10.6935C124.576 10.5489 124.016 10.4317 123.46 10.4317C120.156 10.4317 119.688 13.2126 119.688 13.9746V21.4874H116.178V7.44652H116.178Z" fill="#010101"/>
<path d="M133.011 10.2572C135.553 10.2572 137.163 11.9484 137.163 14.3825C137.163 16.7186 135.585 18.5035 132.983 18.5035C130.615 18.5035 128.857 16.6612 128.857 14.4375C128.857 11.9484 130.55 10.2572 133.011 10.2572ZM137.163 7.44652V9.55302H137.108C136.081 7.85485 134.236 7.09326 132.277 7.09326C127.949 7.09326 125.347 10.3123 125.347 14.4679C125.347 18.4419 128.127 21.6614 132.336 21.6614C134.094 21.6614 135.906 20.9913 136.935 19.617H136.985V20.6427C136.985 23.4189 135.938 25.3513 132.543 25.3513C130.583 25.3513 129.119 24.6168 127.715 23.3227L125.613 26.195C127.595 27.9571 129.968 28.5082 132.574 28.5082C138.045 28.5082 140.5 25.2869 140.5 20.2292V7.44652H137.163Z" fill="#010101"/>
</g>
<defs>
<clipPath id="clip0_627_882">
<rect width="140" height="28.2184" fill="white" transform="translate(0.5 0.290039)"/>
</clipPath>
</defs>
</svg>
