<svg width="180" height="17" viewBox="0 0 180 17" fill="none" xmlns="http://www.w3.org/2000/svg">
<g clip-path="url(#clip0_629_1039)">
<path d="M179.04 14.0699C178.516 14.0699 178.08 14.5065 178.08 15.0958C178.08 15.6848 178.516 16.1213 179.04 16.1213C179.563 16.1213 180 15.6848 180 15.0958C180 14.5065 179.563 14.0699 179.04 14.0699ZM144.301 16.0556H148.709V15.663L148.229 15.5538C147.792 15.4446 147.596 15.2047 147.596 14.5934V8.65855H148.622C149.254 8.65855 149.582 8.81123 149.625 10.1425L149.734 12.9353C149.822 15.4446 150.542 16.1431 151.764 16.1431C153.008 16.1431 153.335 15.2919 153.335 14.0919V13.5898H152.876V13.9606C152.876 14.7684 152.768 15.3356 152.462 15.3356C152.179 15.3356 152.156 15.1175 152.091 14.1136L151.96 12.1937C151.786 9.61866 151.458 8.72402 149.56 8.37463C151.371 7.89485 152.484 6.56361 152.484 4.6651C152.484 2.19932 150.542 1.02104 148.687 1.02104H141.246V1.41389L141.661 1.5011C142.446 1.67579 142.468 2.09038 142.468 3.85794V12.5425C142.468 14.4847 141.923 15.4228 140.679 15.4228C139.566 15.4228 138.955 14.8773 138.955 12.7606V2.43949C138.955 1.82847 139.151 1.65407 139.631 1.54485L140.22 1.41389V1.02104H135.66V1.41389L136.14 1.54485C136.576 1.6758 136.729 1.85049 136.729 2.46122V12.608C136.729 14.899 138.06 16.1648 140.09 16.1648C142.119 16.1648 143.123 14.899 143.123 12.5425V3.07224C143.123 1.89396 143.363 1.47937 144.323 1.47937C145.087 1.47937 145.414 1.74127 145.414 2.46122V14.5934C145.414 15.2047 145.218 15.4228 144.781 15.5321L144.301 15.663V16.0556V16.0556ZM173.585 2.46122C173.585 1.85049 173.781 1.65407 174.217 1.56658L174.807 1.43563V1.02104H170.268V1.41389L170.748 1.54485C171.184 1.6758 171.381 1.85049 171.381 2.46122V14.6812C171.381 15.2702 171.141 15.5975 170.464 15.5975C169.679 15.5975 169.569 15.3356 169.286 14.0484L166.493 0.97758H165.62L162.958 13.6336C162.652 15.0517 162.5 15.3794 161.91 15.5538L161.539 15.663V16.0556H164.66V15.663L164.202 15.5755C163.547 15.4446 163.373 15.0958 163.7 13.4371L165.271 5.34158L166.995 13.9172C167.257 15.161 167.235 15.4011 166.296 15.5755L165.838 15.663V16.0556H177.403V11.0806H176.989C176.771 13.3717 176.312 15.5321 174.458 15.5321H173.585V2.46122V2.46122ZM166.776 11.997V11.408H163.831L163.744 11.997H166.776ZM154.601 2.72313V13.1535C154.601 14.7246 154.601 15.4666 153.815 15.5975L153.422 15.663V16.0556H156.63V15.663C155.233 15.4666 155.233 14.9865 155.233 13.2844V3.37788L154.71 2.89782L160.056 16.0556H160.972V3.92341C160.972 2.13412 160.972 1.74127 161.845 1.5011L162.151 1.41389V1.02104H158.855V1.41389L159.226 1.5011C160.339 1.69752 160.339 2.13413 160.339 3.79247V11.3859L160.558 11.3205L156.499 1.02104H153.379V1.41389L153.684 1.5011C154.034 1.61032 154.23 2.00318 154.601 2.72313V2.72313ZM147.596 1.54485H148.469C149.342 1.54485 150.149 2.11212 150.149 4.94902C150.149 7.85111 149.538 8.13474 148.316 8.13474H147.596V1.54485ZM133.064 8.39664C133.064 14.7026 132.54 15.5975 131.405 15.5975C130.27 15.5975 129.768 14.7026 129.768 8.4401C129.768 2.37401 130.314 1.5011 131.405 1.5011C132.54 1.5011 133.064 2.37401 133.064 8.39664ZM135.442 8.52759C135.442 4.35973 134.111 0.912109 131.405 0.912109C128.678 0.912109 127.39 4.35973 127.39 8.52759C127.39 12.7172 128.721 16.1648 131.405 16.1648C134.176 16.1648 135.442 12.7172 135.442 8.52759ZM126.103 2.46122C126.103 1.85049 126.256 1.65407 126.692 1.54485L127.172 1.41389V1.02104H122.655V1.41389L123.2 1.54485C123.637 1.65407 123.877 1.80674 123.877 2.43949V12.9353C123.877 14.3973 123.746 15.5755 122.655 15.5755C121.956 15.5755 121.433 15.03 121.455 14.6374C121.52 13.9606 122.655 14.0047 122.742 12.9133C122.808 12.1279 122.306 11.8005 121.848 11.7353C121.171 11.6478 120.342 12.2151 120.32 13.3499C120.298 14.8118 121.258 16.1431 122.895 16.1431C124.706 16.1431 126.103 14.9211 126.103 12.5859V2.46122V2.46122ZM53.2209 2.46122C53.2209 1.85049 53.4173 1.65407 53.8537 1.56658L54.4429 1.43563V1.02104H49.9042V1.41389L50.3843 1.54485C50.8206 1.6758 51.017 1.85049 51.017 2.46122V14.6812C51.017 15.2702 50.7769 15.5975 50.1004 15.5975C49.315 15.5975 49.184 15.3356 48.9004 14.0484L46.1072 0.97758H45.2346L42.5724 13.6336C42.267 15.0517 42.1141 15.3794 41.5251 15.5538L41.1539 15.663V16.0556H44.2745V15.663L43.8161 15.5755C43.1617 15.4446 42.987 15.0958 43.3144 13.4371L44.8855 5.29784L46.6093 13.9172C46.8492 15.161 46.8492 15.4011 45.9111 15.5755L45.4528 15.663V16.0556H57.0397V11.0806H56.6251C56.4069 13.3717 55.9486 15.5321 54.0938 15.5321H53.2209V2.46122V2.46122ZM113.97 1.54485H114.45C115.803 1.54485 116.261 3.70498 116.414 5.99634H116.828V1.02104H108.908V5.99634H109.322C109.475 3.70498 109.933 1.54485 111.286 1.54485H111.766V14.5934C111.766 15.2047 111.57 15.4228 111.134 15.5321L110.566 15.663V16.0556H115.28V15.663L114.603 15.5103C114.188 15.4011 113.97 15.2702 113.97 14.5934V1.54485V1.54485ZM103.998 8.50559L104.674 8.52759C105.656 8.54933 105.94 8.92045 106.137 11.299H106.551V5.23265H106.137C105.896 7.13116 105.634 7.93831 104.696 7.96032L103.998 7.98207V1.54486H105.504C107.184 1.54486 107.555 3.66153 107.795 5.99636H108.209V1.02106H100.681V1.41391L101.161 1.54486C101.663 1.67581 101.794 1.98146 101.794 2.48325V14.5934C101.794 15.2047 101.598 15.4229 101.161 15.5321L100.681 15.663V16.0556H108.428V11.0806H108.013C107.751 13.3499 107.467 15.5321 105.504 15.5321H103.998V8.50559V8.50559ZM95.7716 8.50559L96.4481 8.52759C97.4299 8.54933 97.7136 8.92045 97.91 11.299H98.3246V5.23265H97.91C97.6701 7.13116 97.4082 7.93831 96.4701 7.96032L95.7716 7.98207V1.54486H97.2772C98.9576 1.54486 99.3284 3.70499 99.5683 5.99636H99.9829V1.02106H92.2367V1.41391L92.935 1.54486C93.4368 1.67581 93.5677 1.98146 93.5677 2.48325V14.5934C93.5677 15.2047 93.3713 15.4229 92.935 15.5321L92.4549 15.663V16.0556H100.201V11.0806H99.7868C99.5249 13.3499 99.2409 15.5321 97.2772 15.5321H95.7716V8.50559V8.50559ZM86.8031 1.54485H87.4579C88.3305 1.54485 89.1379 2.11212 89.1379 4.94902C89.1379 7.80737 88.5272 8.13474 87.3052 8.13474H86.8031V1.54485ZM83.5082 16.0556H87.9162V15.663L87.4359 15.5538C86.9996 15.4446 86.8031 15.2047 86.8031 14.5934V8.65855H87.6106C88.2433 8.65855 88.5707 8.92045 88.6144 10.1425L88.7234 12.9353C88.8109 15.4446 89.5308 16.1431 90.7528 16.1431C91.9966 16.1431 92.3237 15.2919 92.3237 14.0919V13.5898H91.8656V13.9606C91.8656 14.7684 91.7567 15.3356 91.451 15.3356C91.1674 15.3356 91.1454 15.1175 91.0802 14.1136L90.949 12.1937C90.7746 9.55319 90.4254 8.72402 88.549 8.37463C90.36 7.89485 91.4728 6.56361 91.4728 4.6651C91.4728 2.19932 89.5308 1.02104 87.676 1.02104H83.5082V1.41389L83.9882 1.54485C84.4248 1.6758 84.621 1.85049 84.621 2.46122V14.5934C84.621 15.2047 84.4248 15.4228 83.9882 15.5321L83.5082 15.663V16.0556V16.0556ZM80.1698 1.54485H80.6498C82.0025 1.54485 82.4608 3.70498 82.6138 5.99634H83.0281V1.02104H75.1073V5.99634H75.5218C75.6745 3.70498 76.1329 1.54485 77.4858 1.54485H77.9659V14.5934C77.9659 15.2047 77.7692 15.4228 77.3331 15.5321L76.7656 15.663V16.0556H81.3698V15.663L80.8025 15.5321C80.2352 15.4011 80.1698 14.9648 80.1698 14.5934V1.54485V1.54485ZM75.129 12.1496C75.129 7.67641 70.2195 6.49814 70.2195 3.24693C70.2195 2.54872 70.4814 1.5011 71.5721 1.5011C73.1433 1.5011 73.7326 3.53057 73.9945 5.99634H74.409V1.02104H74.1471C74.0379 1.5011 73.8415 1.71954 73.5581 1.71954C73.0561 1.71954 72.7942 0.933841 71.5942 0.933841C69.7394 0.933841 68.4736 2.48324 68.4736 4.51241C68.4736 8.20021 73.3834 9.74934 73.3834 13.1535C73.3834 14.7026 72.6632 15.5755 71.6814 15.5755C70.2195 15.5755 69.2593 13.852 68.9974 11.0806H68.5829V16.0556H68.8448C69.0629 15.3356 69.3465 15.2702 69.5864 15.2702C70.0013 15.2702 70.4376 16.1431 71.7031 16.1431C73.6454 16.1431 75.129 14.463 75.129 12.1496V12.1496ZM60.8364 2.46122C60.8364 1.85049 61.0328 1.65407 61.4692 1.56658L62.0584 1.43563V1.02104H57.5197V1.41389L57.9998 1.54485C58.4361 1.6758 58.6325 1.85049 58.6325 2.46122V14.5934C58.6325 15.2047 58.4361 15.4228 57.9998 15.5321L57.5197 15.663V16.0556H64.6552V11.0806H64.2403C64.0224 13.3717 63.5641 15.5321 61.7093 15.5321H60.8364V2.46122V2.46122ZM46.3909 11.997V11.408H43.4453L43.3578 11.997H46.3909ZM33.7786 16.0993H34.6733L36.7024 5.3636H36.3971L38.6227 16.0993H39.4084L42.0706 3.44336C42.3542 2.11212 42.5069 1.65406 43.0307 1.52283L43.4453 1.41389V1.02104H40.3685V1.41389L40.8268 1.5011C41.4813 1.63205 41.634 2.0249 41.3286 3.6395L39.6048 12.1279H39.8667L38.1209 3.18145C37.9462 2.33027 37.8373 1.63205 38.5575 1.5011L39.0373 1.41389V1.02104H34.826V1.41389L35.1096 1.47937C35.5462 1.5883 35.6117 1.8505 35.7861 2.67966L36.4626 5.93086L36.3316 3.96688L34.826 11.9097H35.0224L33.2548 3.18145C33.0584 2.2868 32.9929 1.61032 33.6911 1.47937L34.0188 1.41389V1.02104H29.72V1.41389L30.1346 1.52283C30.5271 1.63205 30.7456 1.82848 31.0075 3.02849L33.7786 16.0993V16.0993ZM22.1262 8.50559L22.8027 8.52759C23.7846 8.54933 24.0682 8.92045 24.2646 11.299H24.6792V5.23265H24.2646C24.0247 7.13116 23.7628 7.93831 22.8244 7.96032L22.1262 7.98207V1.54486H23.6319C25.312 1.54486 25.6831 3.70499 25.923 5.99636H26.3376V1.02106H18.8096V1.41391L19.2896 1.54486C19.7914 1.67581 19.9224 1.98146 19.9224 2.48325V14.5934C19.9224 15.2047 19.7259 15.4229 19.2896 15.5321L18.8096 15.663V16.0556H26.556V11.0806H26.1411C25.8795 13.3499 25.5959 15.5321 23.6319 15.5321H22.1262V8.50559V8.50559ZM8.40091 16.0556H12.8741V15.663L12.3723 15.5538C11.9795 15.4666 11.7176 15.2047 11.7176 14.5934V8.63682H15.0125V14.5934C15.0125 15.2047 14.7509 15.4666 14.3581 15.5538L13.8563 15.663V16.0556H18.3295V15.663L17.8494 15.5321C17.4131 15.4228 17.2164 15.1827 17.2164 14.5719V2.46122C17.2164 1.85049 17.4131 1.65407 17.8494 1.54485L18.3295 1.41389V1.02104H13.8563V1.41389L14.3581 1.54485C14.7289 1.65407 15.0125 1.80674 15.0125 2.43949V8.04752H11.7176V2.43949C11.7176 1.82847 11.9578 1.65407 12.3723 1.54485L12.8741 1.41389V1.02104H8.40091V1.41389L8.88097 1.54485C9.31757 1.6758 9.51372 1.85049 9.51372 2.46122V14.5934C9.51372 15.2047 9.31757 15.4228 8.88097 15.5321L8.40091 15.663V16.0556ZM5.06222 1.54485H5.54256C6.89526 1.54485 7.35359 3.70498 7.50627 5.99634H7.92085V1.02104H0V5.99634H0.414585C0.567267 3.70498 1.0256 1.54485 2.37829 1.54485H2.85835V14.5934C2.85835 15.2047 2.6622 15.4228 2.22561 15.5321L1.65834 15.663V16.0556H6.37173V15.663L5.69525 15.5103C5.28066 15.4011 5.06222 15.2702 5.06222 14.5934V1.54485V1.54485Z" fill="#1C1C21"/>
</g>
<defs>
<clipPath id="clip0_629_1039">
<rect width="180" height="15.2527" fill="white" transform="translate(0 0.912109)"/>
</clipPath>
</defs>
</svg>
