<svg width="70" height="34" viewBox="0 0 70 34" fill="none" xmlns="http://www.w3.org/2000/svg">
<g clip-path="url(#clip0_629_938)">
<path d="M5.30664 16.9916C5.30664 22.9573 10.16 27.8107 16.1257 27.8107H26.2313C26.8659 27.8107 27.3581 27.2074 27.3581 26.6879V6.86189C27.3581 5.60944 28.3771 4.59016 29.6293 4.59016C30.4326 4.59016 31.1812 5.01607 31.5824 5.70218C31.6327 5.78853 34.6923 11.0635 37.9312 16.6486C41.026 21.9854 44.2266 27.504 44.2769 27.5906C44.4388 27.8668 44.7554 28.045 45.084 28.045C45.6044 28.045 46.0279 27.6217 46.0279 27.101V6.86189C46.0279 5.60944 47.0464 4.59016 48.2991 4.59016C49.1024 4.59016 49.851 5.01607 50.2519 5.70218C50.3028 5.78853 53.3597 11.0635 56.5967 16.6489C59.6885 21.9846 62.8862 27.5016 62.9377 27.5906C63.0996 27.8668 63.4162 28.045 63.7447 28.045C64.2651 28.045 64.6881 27.6217 64.6881 27.101V0.86131H60.7049V16.4805C60.7049 16.4805 53.4877 4.05813 53.2539 3.65867C52.2003 1.85763 50.2025 0.719727 48.0761 0.719727C44.7453 0.719727 42.0441 3.42202 42.0441 6.75257V16.4805C42.0441 16.4805 34.8272 4.05813 34.5931 3.65867C33.5395 1.85763 31.5417 0.719727 29.4153 0.719727C26.0845 0.719727 23.3834 3.42202 23.3834 6.75257V22.7375C23.3854 23.3193 22.9481 23.8263 22.3114 23.8275H16.1684C12.3934 23.8275 9.33289 20.767 9.33289 16.9916C9.33289 13.2163 12.3934 10.1558 16.1684 10.1558H21.314V6.17258H16.1257C10.16 6.17258 5.30664 11.0259 5.30664 16.9916Z" fill="#CC0000"/>
<path d="M66.0165 0.861328V27.1013C66.0165 28.3541 64.9981 29.3731 63.7453 29.3731C62.9421 29.3731 62.1934 28.9472 61.7922 28.2613C61.7419 28.175 58.6844 22.8998 55.448 17.3147C52.3556 11.9793 49.1588 6.46157 49.1064 6.3729C48.9451 6.09672 48.6279 5.91821 48.2994 5.91821C47.779 5.91821 47.356 6.34151 47.356 6.86191V27.1013C47.356 28.3541 46.337 29.3731 45.0845 29.3731C44.2813 29.3731 43.5332 28.9472 43.1314 28.2613C43.0812 28.175 40.0216 22.9001 36.7826 17.3147C33.6875 11.9781 30.4872 6.45954 30.4366 6.3729C30.2747 6.09672 29.9581 5.91821 29.6296 5.91821C29.1092 5.91821 28.6862 6.34151 28.6862 6.86191V26.6882C28.6862 27.9936 27.5393 29.1387 26.2319 29.1387H16.1262C9.42852 29.1387 3.97916 23.69 3.97916 16.9916C3.97916 10.2939 9.42852 4.84486 16.1262 4.84486H21.3142V0.861328H16.1309C7.2222 0.861328 0 8.08296 0 16.9916C0 25.9006 7.2222 33.1226 16.1309 33.1226H26.3333C30.1982 33.1246 32.6836 30.8601 32.6784 26.6833V17.4827C32.6784 17.4827 39.9471 29.9935 40.1297 30.3048C41.1833 32.1056 43.1812 33.2435 45.3075 33.2435C48.6387 33.2435 51.3392 30.5412 51.3392 27.2109V17.4827C51.3392 17.4827 58.5565 29.9054 58.7902 30.3048C59.8441 32.1056 61.842 33.2435 63.9683 33.2435C67.2992 33.2435 70 30.5412 70 27.2109V0.861328H66.0165Z" fill="#CC0000"/>
<path d="M3.97949 16.9917C3.97949 23.6897 9.42856 29.1387 16.1263 29.1387H26.2319C27.5393 29.1387 28.6865 27.9936 28.6865 26.6879V6.86191C28.6865 6.34151 29.1095 5.91821 29.6299 5.91821C29.9584 5.91821 30.275 6.09643 30.437 6.37261C30.4873 6.45954 33.6879 11.9781 36.7829 17.3147C40.0219 22.8998 43.0812 28.1747 43.1318 28.2613C43.5333 28.9472 44.2813 29.3728 45.0846 29.3728C46.3373 29.3728 47.3563 28.3538 47.3563 27.1011V6.86191C47.3563 6.34151 47.7793 5.91821 48.2997 5.91821C48.6282 5.91821 48.9451 6.09643 49.1068 6.37261C49.1588 6.46157 52.3559 11.979 55.4484 17.3144C58.6847 22.8995 61.742 28.1747 61.7926 28.2613C62.1938 28.9472 62.9421 29.3728 63.7454 29.3728C64.9981 29.3728 66.0168 28.3538 66.0168 27.1011V0.861328H64.6888V27.1011C64.6888 27.6217 64.2658 28.045 63.7454 28.045C63.4169 28.045 63.1003 27.8668 62.9383 27.5906C62.8866 27.5017 59.6892 21.9846 56.5973 16.6489C53.3604 11.0635 50.3034 5.78855 50.2525 5.7022C49.8513 5.01609 49.103 4.59018 48.2997 4.59018C47.047 4.59018 46.0283 5.60946 46.0283 6.86191V27.1011C46.0283 27.6217 45.605 28.045 45.0846 28.045C44.7561 28.045 44.4395 27.8668 44.2775 27.5906C44.2272 27.504 41.0266 21.9854 37.9316 16.6486C34.6926 11.0635 31.6333 5.78855 31.5827 5.7022C31.1815 5.01609 30.4332 4.59018 29.6299 4.59018C28.3775 4.59018 27.3588 5.60946 27.3588 6.86191V26.6879C27.3588 27.2075 26.8666 27.8107 26.2319 27.8107H16.1263C10.1606 27.8107 5.30723 22.9573 5.30723 16.9917C5.30723 11.026 10.1606 6.1726 16.1263 6.1726H21.3143V4.84456H16.1263C9.42856 4.84456 3.97949 10.2936 3.97949 16.9917Z" fill="white"/>
</g>
<defs>
<clipPath id="clip0_629_938">
<rect width="70" height="32.5236" fill="white" transform="translate(0 0.719727)"/>
</clipPath>
</defs>
</svg>
