<svg width="185" height="26" viewBox="0 0 185 26" fill="none" xmlns="http://www.w3.org/2000/svg">
<g clip-path="url(#clip0_627_878)">
<path d="M13.8 3.68994C13.8 1.68994 11.9 1.18994 10.4 1.18994V1.48994C11.3 1.48994 12 1.78994 12 2.48994C12 2.88994 11.7 3.48994 10.8 3.48994C10.1 3.48994 8.6 3.08994 7.5 2.68994C6.2 2.18994 5 1.78994 4 1.78994C2 1.78994 0.6 3.28994 0.6 4.98994C0.6 6.48994 1.7 6.98994 2.1 7.18994L2.2 6.98994C2 6.78994 1.7 6.58994 1.7 5.98994C1.7 5.58994 2.1 4.88994 3.1 4.88994C4 4.88994 5.2 5.28994 6.8 5.78994C8.2 6.18994 9.7 6.48994 10.5 6.58994V9.68994L9 10.9899V11.0899L10.5 12.3899V16.6899C9.7 17.1899 8.8 17.2899 8 17.2899C6.5 17.2899 5.2 16.8899 4.1 15.6899L8.2 13.6899V6.78994L3.2 8.98994C3.6 7.68994 4.7 6.78994 5.8 6.18994L5.7 5.88994C2.7 6.68994 0 9.48994 0 12.8899C0 16.8899 3.3 19.8899 7 19.8899C11 19.8899 13.6 16.6899 13.6 13.3899H13.4C12.8 14.6899 11.9 15.8899 10.8 16.4899V12.3899L12.4 11.0899V10.9899L10.8 9.68994V6.58994C12.3 6.58994 13.8 5.58994 13.8 3.68994ZM5.1 14.6899L3.9 15.2899C3.2 14.3899 2.8 13.1899 2.8 11.4899C2.8 10.7899 2.8 9.98994 3 9.38994L5.1 8.48994V14.6899V14.6899ZM15.7 16.9899L14.4 17.9899L14.6 18.1899L15.2 17.6899L17.4 19.6899L20.4 17.6899L20.3 17.4899L19.5 17.9899L18.5 16.9899V10.1899L19.3 9.58994L21 10.9899V17.0899C21 20.8899 20.2 21.4899 18.5 22.0899V22.3899C21.3 22.4899 23.9 21.5899 23.9 16.6899V10.0899L24.8 9.38994L24.6 9.18994L23.8 9.78994L21.3 7.68994L18.5 9.78994V1.58994H18.3L14.8 3.98994V4.18994C15.2 4.38994 15.8 4.58994 15.8 5.68994L15.7 16.9899V16.9899ZM34 15.8899L31.5 17.7899L29 15.7899V14.5899L33.7 11.3899V11.2899L31.3 7.68994L26.1 10.4899V17.0899L25.1 17.8899L25.3 18.0899L26.2 17.3899L29.6 19.8899L34.1 16.2899L34 15.8899V15.8899ZM29 14.1899V9.28994L29.2 9.18994L31.4 12.6899L29 14.1899ZM53.1 2.78994C53.1 2.48994 53 2.18994 52.9 1.88994H52.7C52.4 2.68994 52 3.08994 51 3.08994C50.1 3.08994 49.5 2.58994 49.1 2.18994L46.2 5.48994L46.4 5.68994L47.4 4.78994C48 5.28994 48.5 5.68994 49.9 5.78994V14.0899L44 3.98994C43.5 3.18994 42.8 2.08994 41.4 2.08994C39.8 2.08994 38.4 3.48994 38.6 5.68994H38.9C39 5.08994 39.3 4.38994 40 4.38994C40.5 4.38994 41 4.88994 41.3 5.38994V8.68994C39.5 8.68994 38.3 9.48994 38.3 10.9899C38.3 11.7899 38.7 12.9899 39.9 13.2899V13.0899C39.7 12.8899 39.6 12.6899 39.6 12.3899C39.6 11.8899 40 11.4899 40.7 11.4899H41.2V15.6899C39.1 15.6899 37.4 16.8899 37.4 18.8899C37.4 20.7899 39 21.6899 40.8 21.5899V21.3899C39.7 21.2899 39.2 20.7899 39.2 20.0899C39.2 19.1899 39.8 18.7899 40.6 18.7899C41.4 18.7899 42.1 19.2899 42.6 19.8899L45.5 16.6899L45.3 16.4899L44.6 17.2899C43.5 16.2899 42.9 15.9899 41.6 15.7899V5.78994L49.6 19.7899H50.2V5.78994C51.7 5.68994 53.1 4.48994 53.1 2.78994V2.78994ZM60.4 15.8899L57.9 17.7899L55.4 15.7899V14.5899L60.1 11.3899V11.2899L57.7 7.68994L52.5 10.4899V17.0899L51.5 17.8899L51.7 18.0899L52.6 17.3899L56 19.8899L60.5 16.2899L60.4 15.8899V15.8899ZM55.4 14.1899V9.28994L55.6 9.18994L57.8 12.6899L55.4 14.1899V14.1899ZM76.7 8.78994L76 9.28994L74.1 7.68994L71.9 9.68994L72.8 10.5899V18.0899L70.4 16.5899V10.3899L71.2 9.88994L68.9 7.68994L66.7 9.68994L67.6 10.5899V17.7899L67.3 17.9899L65.2 16.4899V10.4899C65.2 9.08994 64.5 8.68994 63.7 8.18994C63 7.68994 62.6 7.38994 62.6 6.68994C62.6 6.08994 63.2 5.78994 63.5 5.58994V5.38994C62.7 5.38994 60.6 6.18994 60.6 8.08994C60.6 9.08994 61.1 9.48994 61.6 9.98994C62.1 10.4899 62.6 10.8899 62.6 11.7899V17.5899L61.5 18.3899L61.7 18.5899L62.7 17.7899L65 19.7899L67.5 18.0899L70.3 19.7899L75.6 16.6899V9.98994L76.9 8.98994L76.7 8.78994V8.78994ZM95.3 3.28994L94.3 4.18994L92.1 2.18994L88.8 4.58994V2.38994H88.5L88.6 18.5899C88.3 18.5899 87.4 18.3899 86.7 18.1899L86.5 4.68994C86.5 3.68994 85.8 2.28994 84 2.28994C82.2 2.28994 81 3.68994 81 5.08994H81.3C81.4 4.48994 81.7 3.98994 82.3 3.98994C82.9 3.98994 83.4 4.38994 83.4 5.68994V9.58994C81.6 9.68994 80.5 10.6899 80.5 11.9899C80.5 12.7899 80.9 13.9899 82.1 13.9899V13.7899C81.7 13.5899 81.6 13.2899 81.6 13.0899C81.6 12.4899 82.1 12.2899 82.9 12.2899H83.3V18.4899C81.8 18.9899 81.2 20.0899 81.2 21.2899C81.2 22.9899 82.5 24.1899 84.5 24.1899C85.9 24.1899 87.1 23.9899 88.3 23.6899C89.3 23.4899 90.6 23.1899 91.2 23.1899C92 23.1899 92.3 23.5899 92.3 24.0899C92.3 24.7899 92 25.0899 91.6 25.1899V25.3899C93.2 25.0899 94.2 24.0899 94.2 22.5899C94.2 21.0899 92.7 20.1899 91.1 20.1899C90.3 20.1899 88.6 20.4899 87.4 20.6899C86 20.9899 84.6 21.1899 84.2 21.1899C83.5 21.1899 82.7 20.8899 82.7 19.8899C82.7 19.0899 83.4 18.3899 85.1 18.3899C86 18.3899 87.1 18.4899 88.2 18.7899C89.4 19.0899 90.5 19.3899 91.5 19.3899C93 19.3899 94.3 18.8899 94.3 16.7899V4.48994L95.5 3.48994L95.3 3.28994V3.28994ZM91.2 9.38994C90.9 9.68994 90.5 9.98994 90 9.98994C89.5 9.98994 89 9.68994 88.8 9.38994V4.98994L89.8 4.28994L91.2 5.58994V9.38994ZM91.2 12.3899C91 12.1899 90.5 11.8899 90 11.8899C89.5 11.8899 89 12.1899 88.8 12.3899V9.78994C89 9.98994 89.5 10.2899 90 10.2899C90.5 10.2899 91 9.98994 91.2 9.78994V12.3899ZM91.2 17.0899C91.2 17.8899 90.7 18.6899 89.6 18.6899H88.8V12.7899C89 12.5899 89.5 12.2899 90 12.2899C90.5 12.2899 90.9 12.5899 91.2 12.7899V17.0899V17.0899ZM104.9 9.98994L101.7 7.68994L96.8 10.4899V16.9899L95.8 17.7899L95.9 17.9899L96.7 17.3899L99.9 19.7899L104.9 16.7899V9.98994V9.98994ZM99.5 16.2899V9.08994L102 10.8899V17.9899L99.5 16.2899V16.2899ZM114.4 7.88994H114.2C113.9 8.08994 113.6 8.28994 113.3 8.28994C112.9 8.28994 112.4 8.08994 112.2 7.78994H112L110.3 9.68994L108.6 7.78994L105.6 9.78994L105.7 9.98994L106.5 9.48994L107.5 10.5899V16.8899L106.2 17.8899L106.4 18.0899L107 17.5899L109.4 19.5899L112.5 17.4899L112.4 17.2899L111.5 17.7899L110.3 16.7899V9.78994C110.8 10.2899 111.4 10.7899 112.1 10.7899C113.5 10.8899 114.3 9.48994 114.4 7.88994V7.88994ZM126.4 17.4899L123 19.7899L118.4 12.7899L121.7 7.68994H121.9C122.3 8.08994 122.9 8.48994 123.6 8.48994C124.3 8.48994 124.8 8.08994 125.1 7.68994H125.3C125.2 9.68994 123.8 10.8899 122.8 10.8899C121.8 10.8899 121.3 10.3899 120.7 10.0899L120.4 10.5899L125.4 17.9899L126.4 17.3899V17.4899V17.4899ZM115.4 16.9899L114.1 17.9899L114.3 18.1899L114.9 17.6899L117.1 19.6899L120.1 17.6899L119.9 17.4899L119.1 17.9899L118.1 16.9899V1.58994H118L114.4 3.98994V4.18994C114.8 4.38994 115.4 4.48994 115.4 5.68994V16.9899V16.9899ZM143 3.68994C143 1.68994 141.1 1.18994 139.6 1.18994V1.48994C140.5 1.48994 141.2 1.78994 141.2 2.48994C141.2 2.88994 140.9 3.48994 140 3.48994C139.3 3.48994 137.8 3.08994 136.7 2.68994C135.4 2.28994 134.2 1.88994 133.2 1.88994C131.2 1.88994 129.8 3.38994 129.8 5.08994C129.8 6.58994 130.9 7.08994 131.3 7.28994L131.4 7.08994C131.1 6.88994 130.8 6.68994 130.8 6.08994C130.8 5.68994 131.2 4.98994 132.2 4.98994C133.1 4.98994 134.3 5.38994 135.9 5.88994C137.3 6.28994 138.8 6.58994 139.6 6.68994V9.78994L138.1 11.0899V11.1899L139.6 12.4899V16.7899C138.8 17.2899 137.9 17.3899 137.1 17.3899C135.6 17.3899 134.3 16.9899 133.2 15.7899L137.3 13.7899V6.78994L132.3 8.98994C132.8 7.68994 133.9 6.78994 134.9 6.08994L134.8 5.88994C131.8 6.68994 129.1 9.38994 129.1 12.7899C129.1 16.7899 132.4 19.7899 136.1 19.7899C140.1 19.7899 142.7 16.5899 142.7 13.2899H142.5C141.9 14.5899 141 15.7899 139.9 16.3899V12.2899L141.5 10.9899V10.8899L140 9.58994V6.58994C141.5 6.58994 143 5.58994 143 3.68994V3.68994ZM134.3 14.6899L133.1 15.2899C132.4 14.3899 132 13.1899 132 11.4899C132 10.7899 132.1 9.98994 132.3 9.38994L134.4 8.48994L134.3 14.6899V14.6899ZM146.5 2.68994H146.4L144.4 4.38994V4.48994L146.1 6.38994H146.3L148.3 4.68994V4.58994L146.5 2.68994V2.68994ZM149.5 17.4899L148.7 17.9899L147.7 16.9899V10.0899L148.7 9.38994L148.5 9.18994L147.8 9.78994L146 7.68994L143.1 9.68994L143.3 9.98994L144 9.48994L144.9 10.5899V17.0899L143.6 18.0899L143.7 18.2899L144.4 17.7899L146.6 19.7899L149.6 17.7899L149.5 17.4899V17.4899ZM166.2 17.3899L165.5 17.8899L164.4 16.8899V10.0899L165.4 9.28994L165.2 9.08994L164.4 9.78994L162.1 7.68994L159.1 9.78994L156.8 7.68994L154 9.78994L152.2 7.68994L149.3 9.68994L149.4 9.98994L150.1 9.48994L151.1 10.5899V17.0899L150.3 17.8899L152.6 19.7899L154.8 17.7899L153.9 16.8899V10.0899L154.8 9.48994L156.3 10.8899V16.8899L155.5 17.6899L157.8 19.5899L160 17.5899L159.1 16.6899V10.0899L159.9 9.58994L161.5 10.9899V16.9899L160.8 17.6899L163.1 19.7899L166.2 17.6899V17.3899V17.3899ZM174.9 15.8899L172.4 17.7899L169.9 15.7899V14.5899L174.6 11.3899V11.2899L172.2 7.68994L167 10.4899V17.2899L170.5 19.7899L175 16.1899L174.9 15.8899V15.8899ZM169.9 14.1899V9.28994L170.1 9.18994L172.3 12.6899L169.9 14.1899V14.1899ZM184 13.2899L182.1 11.7899C183.4 10.6899 183.9 9.18994 183.9 8.18994V7.58994H183.7C183.5 8.08994 183.1 8.58994 182.3 8.58994C181.5 8.58994 181 8.18994 180.5 7.58994L176 10.0899V13.6899L177.7 14.9899C176 16.4899 175.7 17.4899 175.7 18.2899C175.7 19.2899 176.2 19.9899 177 20.2899L177.1 20.0899C176.9 19.8899 176.7 19.7899 176.7 19.2899C176.7 18.9899 177.1 18.4899 177.9 18.4899C178.9 18.4899 179.5 19.1899 179.8 19.4899L184.1 16.8899V13.2899H184V13.2899ZM182.9 10.2899C182.2 11.4899 180.7 12.6899 179.8 13.2899L178.7 12.3899V8.88994C179.1 9.88994 180.2 10.6899 181.3 10.6899C182 10.6899 182.4 10.5899 182.9 10.2899V10.2899ZM181.2 18.2899C180.7 17.1899 179.5 16.3899 178.3 16.3899C178 16.3899 177.2 16.3899 176.4 16.8899C176.9 16.0899 178.2 14.6899 179.9 13.6899L181.1 14.6899L181.2 18.2899V18.2899Z" fill="black"/>
</g>
<defs>
<clipPath id="clip0_627_878">
<rect width="185" height="25" fill="white" transform="translate(0 0.790039)"/>
</clipPath>
</defs>
</svg>
